  0
SECTION
  2
HEADER
  9
$ACADVER
  1
AC1014
  9
$ACADMAINTVER
 70
     0
  9
$DWGCODEPAGE
  3
ANSI_1252
  9
$INSBASE
 10
0.0
 20
0.0
 30
0.0
  9
$EXTMIN
 10
-20.885307
 20
-3.306746
 30
0.0
  9
$EXTMAX
 10
3.914886
 20
21.664436
 30
2.0
  9
$LIMMIN
 10
0.0
 20
0.0
  9
$LIMMAX
 10
12.0
 20
9.0
  9
$ORTHOMODE
 70
     0
  9
$REGENMODE
 70
     1
  9
$FILLMODE
 70
     1
  9
$QTEXTMODE
 70
     0
  9
$MIRRTEXT
 70
     1
  9
$DRAGMODE
 70
     2
  9
$LTSCALE
 40
1.0
  9
$OSMODE
 70
     0
  9
$ATTMODE
 70
     1
  9
$TEXTSIZE
 40
0.2
  9
$TRACEWID
 40
0.05
  9
$TEXTSTYLE
  7
STANDARD
  9
$CLAYER
  8
0
  9
$CELTYPE
  6
BYLAYER
  9
$CECOLOR
 62
   256
  9
$CELTSCALE
 40
1.0
  9
$DELOBJ
 70
     1
  9
$DISPSILH
 70
     0
  9
$DIMSCALE
 40
1.0
  9
$DIMASZ
 40
0.18
  9
$DIMEXO
 40
0.0625
  9
$DIMDLI
 40
0.38
  9
$DIMRND
 40
0.0
  9
$DIMDLE
 40
0.0
  9
$DIMEXE
 40
0.18
  9
$DIMTP
 40
0.0
  9
$DIMTM
 40
0.0
  9
$DIMTXT
 40
0.18
  9
$DIMCEN
 40
0.09
  9
$DIMTSZ
 40
0.0
  9
$DIMTOL
 70
     0
  9
$DIMLIM
 70
     0
  9
$DIMTIH
 70
     1
  9
$DIMTOH
 70
     1
  9
$DIMSE1
 70
     0
  9
$DIMSE2
 70
     0
  9
$DIMTAD
 70
     0
  9
$DIMZIN
 70
     0
  9
$DIMBLK
  1

  9
$DIMASO
 70
     1
  9
$DIMSHO
 70
     1
  9
$DIMPOST
  1

  9
$DIMAPOST
  1

  9
$DIMALT
 70
     0
  9
$DIMALTD
 70
     2
  9
$DIMALTF
 40
25.4
  9
$DIMLFAC
 40
1.0
  9
$DIMTOFL
 70
     0
  9
$DIMTVP
 40
0.0
  9
$DIMTIX
 70
     0
  9
$DIMSOXD
 70
     0
  9
$DIMSAH
 70
     0
  9
$DIMBLK1
  1

  9
$DIMBLK2
  1

  9
$DIMSTYLE
  2

  9
$DIMCLRD
 70
     0
  9
$DIMCLRE
 70
     0
  9
$DIMCLRT
 70
     0
  9
$DIMTFAC
 40
1.0
  9
$DIMGAP
 40
0.09
  9
$DIMJUST
 70
     0
  9
$DIMSD1
 70
     0
  9
$DIMSD2
 70
     0
  9
$DIMTOLJ
 70
     1
  9
$DIMTZIN
 70
     0
  9
$DIMALTZ
 70
     0
  9
$DIMALTTZ
 70
     0
  9
$DIMFIT
 70
     3
  9
$DIMUPT
 70
     0
  9
$DIMUNIT
 70
     2
  9
$DIMDEC
 70
     4
  9
$DIMTDEC
 70
     4
  9
$DIMALTU
 70
     2
  9
$DIMALTTD
 70
     2
  9
$DIMTXSTY
  7
STANDARD
  9
$DIMAUNIT
 70
     0
  9
$LUNITS
 70
     2
  9
$LUPREC
 70
     4
  9
$SKETCHINC
 40
0.1
  9
$FILLETRAD
 40
0.5
  9
$AUNITS
 70
     0
  9
$AUPREC
 70
     0
  9
$MENU
  1
.
  9
$ELEVATION
 40
0.0
  9
$PELEVATION
 40
0.0
  9
$THICKNESS
 40
0.0
  9
$LIMCHECK
 70
     0
  9
$BLIPMODE
 70
     1
  9
$CHAMFERA
 40
0.0
  9
$CHAMFERB
 40
0.0
  9
$CHAMFERC
 40
0.0
  9
$CHAMFERD
 40
0.0
  9
$SKPOLY
 70
     0
  9
$TDCREATE
 40
0.000000000
  9
$TDUPDATE
 40
0.000000000
  9
$TDINDWG
 40
0.0000000000
  9
$TDUSRTIMER
 40
0.0000000000
  9
$USRTIMER
 70
     1
  9
$ANGBASE
 50
0.0
  9
$ANGDIR
 70
     0
  9
$PDMODE
 70
     0
  9
$PDSIZE
 40
0.0
  9
$PLINEWID
 40
0.0
  9
$COORDS
 70
     0
  9
$SPLFRAME
 70
     0
  9
$SPLINETYPE
 70
     6
  9
$SPLINESEGS
 70
     8
  9
$ATTDIA
 70
     0
  9
$ATTREQ
 70
     1
  9
$HANDLING
 70
     1
  9
$HANDSEED
  5
6D
  9
$SURFTAB1
 70
     6
  9
$SURFTAB2
 70
     6
  9
$SURFTYPE
 70
     6
  9
$SURFU
 70
     6
  9
$SURFV
 70
     6
  9
$UCSNAME
  2

  9
$UCSORG
 10
0.0
 20
0.0
 30
0.0
  9
$UCSXDIR
 10
1.0
 20
0.0
 30
0.0
  9
$UCSYDIR
 10
0.0
 20
1.0
 30
0.0
  9
$PUCSNAME
  2

  9
$PUCSORG
 10
0.0
 20
0.0
 30
0.0
  9
$PUCSXDIR
 10
1.0
 20
0.0
 30
0.0
  9
$PUCSYDIR
 10
0.0
 20
1.0
 30
0.0
  9
$USERI1
 70
     0
  9
$USERI2
 70
     0
  9
$USERI3
 70
     0
  9
$USERI4
 70
     0
  9
$USERI5
 70
     0
  9
$USERR1
 40
0.0
  9
$USERR2
 40
0.0
  9
$USERR3
 40
0.0
  9
$USERR4
 40
0.0
  9
$USERR5
 40
0.0
  9
$WORLDVIEW
 70
     1
  9
$SHADEDGE
 70
     3
  9
$SHADEDIF
 70
    70
  9
$TILEMODE
 70
     1
  9
$MAXACTVP
 70
    48
  9
$PINSBASE
 10
0.0
 20
0.0
 30
0.0
  9
$PLIMCHECK
 70
     0
  9
$PEXTMIN
 10
-20.885307
 20
-3.306746
 30
0.0
  9
$PEXTMAX
 10
3.914886
 20
21.664436
 30
2.0
  9
$PLIMMIN
 10
0.0
 20
0.0
  9
$PLIMMAX
 10
12.0
 20
9.0
  9
$UNITMODE
 70
     0
  9
$VISRETAIN
 70
     0
  9
$PLINEGEN
 70
     0
  9
$PSLTSCALE
 70
     1
  9
$TREEDEPTH
 70
  3020
  9
$PICKSTYLE
 70
     1
  9
$CMLSTYLE
  2
STANDARD
  9
$CMLJUST
 70
     0
  9
$CMLSCALE
 40
1.0
  9
$PROXYGRAPHICS
 70
     1
  9
$MEASUREMENT
 70
     0
  0
ENDSEC
  0
SECTION
  2
CLASSES
  0
CLASS
  1
LWPOLYLINE
  2
AcDbPolyline
  3
"AutoCAD"
 90
        0
280
     0
281
     1
  0
CLASS
  1
IMAGE
  2
AcDbRasterImage
  3
ISM
 90
      127
280
     0
281
     1
  0
CLASS
  1
OLE2FRAME
  2
AcDbOle2Frame
  3
""
 90
        0
280
     0
281
     1
  0
CLASS
  1
HATCH
  2
AcDbHatch
  3
"ACAD_SEDONA"
 90
        0
280
     0
281
     1
  0
CLASS
  1
DICTIONARYVAR
  2
AcDbDictionaryVar
  3
"AutoCAD"
 90
        0
280
     0
281
     0
  0
CLASS
  1
RASTERVARIABLES
  2
AcDbRasterVariables
  3
ISM
 90
        0
280
     0
281
     0
  0
CLASS
  1
IMAGEDEF
  2
AcDbRasterImageDef
  3
ISM
 90
        0
280
     0
281
     0
  0
CLASS
  1
IMAGEDEF_REACTOR
  2
AcDbRasterImageDefReactor
  3
ISM
 90
        1
280
     0
281
     0
  0
CLASS
  1
IDBUFFER
  2
AcDbIdBuffer
  3
"Acad"
 90
        0
280
     0
281
     0
  0
CLASS
  1
SPATIAL_FILTER
  2
AcDbSpatialFilter
  3
"Acad"
 90
        0
280
     0
281
     0
  0
CLASS
  1
XRECORD
  2
AcDbXrecord
  3
"<Built In>"
 90
        0
280
     0
281
     0
  0
CLASS
  1
SORTENTSTABLE
  2
AcDbSortentsTable
  3
"AutoCAD"
 90
        0
280
     0
281
     0
  0
CLASS
  1
LAYER_INDEX
  2
AcDbLayerIndex
  3
"Acad"
 90
        0
280
     0
281
     0
  0
CLASS
  1
SPATIAL_INDEX
  2
AcDbSpatialIndex
  3
"Acad"
 90
        0
280
     0
281
     0
  0
CLASS
  1
OBJECT_PTR
  2
CAseDLPNTableRecord
  3
"ASE-LPNTableRecord"
 90
        1
280
     0
281
     0
  0
CLASS
  1
LAYOUT
  2
AcDbLayout
  3
"AutoCAD 2000"
 90
        0
280
     0
281
     0
  0
CLASS
  1
PLOTSETTINGS
  2
AcDbPlotSettings
  3
"AutoCAD 2000"
 90
        0
280
     0
281
     0
  0
CLASS
  1
ACDBDICTIONARYWDFLT
  2
AcDbDictionaryWithDefault
  3
"AutoCAD 2000"
 90
        0
280
     0
281
     0
  0
CLASS
  1
ACDBPLACEHOLDER
  2
AcDbPlaceHolder
  3
"AutoCAD 2000"
 90
        0
280
     0
281
     0
  0
CLASS
  1
VBA_PROJECT
  2
AcDbVbaProject
  3
"acadvba"
 90
        0
280
     0
281
     0
  0
CLASS
  1
WIPEOUT
  2
AcDbWipeout
  3
WipeOut|AutoCAD Express Tool|expresstools@autodesk.com
 90
      127
280
     0
281
     1
  0
CLASS
  1
WIPEOUTVARIABLES
  2
AcDbWipeoutVariables
  3
WipeOut|AutoCAD Express Tool|expresstools@autodesk.com
 90
        0
280
     0
281
     0
  0
CLASS
  1
RTEXT
  2
RText
  3
RText|AutoCAD Express Tool|expresstools@autodesk.com
 90
        0
280
     0
281
     1
  0
CLASS
  1
ARCALIGNEDTEXT
  2
AcDbArcAlignedText
  3
ATEXT|AutoCAD Express Tool|expresstools@autodesk.com
 90
        0
280
     0
281
     1
  0
ENDSEC
  0
SECTION
  2
TABLES
  0
TABLE
  2
VPORT
  5
7
100
AcDbSymbolTable
 70
     1
  0
VPORT
  5
15
100
AcDbSymbolTableRecord
100
AcDbViewportTableRecord
  2
*ACTIVE
 70
     0
 10
0.0
 20
0.0
 11
1.0
 21
1.0
 12
6.591288
 22
4.579184
 13
0.0
 23
0.0
 14
1.0
 24
1.0
 15
0.0
 25
0.0
 16
0.0
 26
0.0
 36
1.0
 17
0.0
 27
0.0
 37
0.0
 40
9.158369
 41
0.688564
 42
50.0
 43
0.0
 44
0.0
 50
0.0
 51
0.0
 71
     0
 72
   100
 73
     1
 74
     1
 75
     0
 76
     0
 77
     0
 78
     0
  0
ENDTAB
  0
TABLE
  2
LTYPE
  5
4
100
AcDbSymbolTable
 70
    10
  0
LTYPE
  5
11
100
AcDbSymbolTableRecord
100
AcDbLinetypeTableRecord
  2
BYBLOCK
 70
    64
  3

 72
    65
 73
     0
 40
0.0
  0
LTYPE
  5
12
100
AcDbSymbolTableRecord
100
AcDbLinetypeTableRecord
  2
BYLAYER
 70
    64
  3

 72
    65
 73
     0
 40
0.0
  0
LTYPE
  5
13
100
AcDbSymbolTableRecord
100
AcDbLinetypeTableRecord
  2
CONTINUOUS
 70
    64
  3
Solid line
 72
    65
 73
     0
 40
0.0
  0
LTYPE
  5
1D
100
AcDbSymbolTableRecord
100
AcDbLinetypeTableRecord
  2
DASHED
 70
     0
  3
__ __ __ __ __ __ __ __ __ __ __ __ __ __ __ __
 72
    65
 73
     2
 40
15.0
 49
12.0
 74
     0
 49
-3.0
 74
     0
  0
LTYPE
  5
1E
100
AcDbSymbolTableRecord
100
AcDbLinetypeTableRecord
  2
DASHDOT
 70
     0
  3
 __ . __ . __ . __ . __ . __ . __ . 
 72
    65
 73
     4
 40
18.5
 49
12.0
 74
     0
 49
-3.0
 74
     0
 49
0.5
 74
     0
 49
-3.0
 74
     0
  0
LTYPE
  5
1F
100
AcDbSymbolTableRecord
100
AcDbLinetypeTableRecord
  2
DOT
 70
     0
  3
 . . . . . . . . . . . . . . . .
 72
    65
 73
     2
 40
3.5
 49
0.5
 74
     0
 49
-3.0
 74
     0
  0
LTYPE
  5
20
100
AcDbSymbolTableRecord
100
AcDbLinetypeTableRecord
  2
DASHSPACE
 70
     0
  3
__    __    __    __    __   
 72
    65
 73
     2
 40
30.0
 49
12.0
 74
     0
 49
-18.0
 74
     0
  0
LTYPE
  5
21
100
AcDbSymbolTableRecord
100
AcDbLinetypeTableRecord
  2
DASHDOT2
 70
     0
  3
__ . . __ . . __ . . __ 
 72
    65
 73
     6
 40
22.0
 49
12.0
 74
     0
 49
-3.0
 74
     0
 49
0.5
 74
     0
 49
-3.0
 74
     0
 49
0.5
 74
     0
 49
-3.0
 74
     0
  0
LTYPE
  5
22
100
AcDbSymbolTableRecord
100
AcDbLinetypeTableRecord
  2
PHANTOM
 70
     0
  3
____________    ____    ____   _
 72
    65
 73
     6
 40
20.0
 49
10.0
 74
     0
 49
-2.0
 74
     0
 49
2.0
 74
     0
 49
-2.0
 74
     0
 49
2.0
 74
     0
 49
-2.0
 74
     0
  0
LTYPE
  5
23
100
AcDbSymbolTableRecord
100
AcDbLinetypeTableRecord
  2
AXES
 70
     0
  3
________  __  ________  __  _____
 72
    65
 73
     4
 40
24.0
 49
15.0
 74
     0
 49
-3.0
 74
     0
 49
3.0
 74
     0
 49
-3.0
 74
     0
  0
ENDTAB
  0
TABLE
  2
LAYER
  5
2
100
AcDbSymbolTable
 70
     1
  0
LAYER
  5
14
100
AcDbSymbolTableRecord
100
AcDbLayerTableRecord
  2
0
 70
     0
 62
     7
  6
CONTINUOUS
  0
ENDTAB
  0
TABLE
  2
STYLE
  5
3
100
AcDbSymbolTable
 70
     1
  0
STYLE
  5
17
100
AcDbSymbolTableRecord
100
AcDbTextStyleTableRecord
  2
STANDARD
 70
     0
 40
0.0
 41
1.0
 50
0.0
 71
     0
 42
0.0
  3
txt
  4

  0
ENDTAB
  0
TABLE
  2
VIEW
  5
5
100
AcDbSymbolTable
 70
     0
  0
ENDTAB
  0
TABLE
  2
UCS
  5
6
100
AcDbSymbolTable
 70
     0
  0
ENDTAB
  0
TABLE
  2
APPID
  5
8
100
AcDbSymbolTable
 70
     1
  0
APPID
  5
16
100
AcDbSymbolTableRecord
100
AcDbRegAppTableRecord
  2
ACAD
 70
     0
  0
ENDTAB
  0
TABLE
  2
DIMSTYLE
  5
9
100
AcDbSymbolTable
 70
     1
  0
DIMSTYLE
105
18
100
AcDbSymbolTableRecord
100
AcDbDimStyleTableRecord
  2
STANDARD
 70
     0
  3

  4

  5

  6

  7

 40
1.0
 41
0.18
 42
0.0625
 43
0.38
 44
0.18
 45
0.0
 46
0.0
 47
0.0
 48
0.0
 71
     0
 72
     0
 73
     1
 74
     1
 75
     0
 76
     0
 77
     0
 78
     0
140
0.18
141
0.09
142
0.0
143
25.4
144
1.0
145
0.0
146
1.0
147
0.09
170
     0
171
     2
172
     0
173
     0
174
     0
175
     0
176
     0
177
     0
178
     0
270
     2
271
     4
272
     4
273
     2
274
     2
275
     0
280
     0
281
     0
282
     0
283
     1
284
     0
285
     0
286
     0
287
     3
288
     0
340
17
  0
ENDTAB
  0
TABLE
  2
BLOCK_RECORD
  5
1
100
AcDbSymbolTable
 70
     0
  0
BLOCK_RECORD
  5
A
100
AcDbSymbolTableRecord
100
AcDbBlockTableRecord
  2
*MODEL_SPACE
  0
BLOCK_RECORD
  5
B
100
AcDbSymbolTableRecord
100
AcDbBlockTableRecord
  2
*PAPER_SPACE
  0
ENDTAB
  0
ENDSEC
  0
SECTION
  2
BLOCKS
  0
BLOCK
  5
D
100
AcDbEntity
  8
0
100
AcDbBlockBegin
  2
*MODEL_SPACE
 70
     0
 10
0.0
 20
0.0
 30
0.0
  3
*MODEL_SPACE
  1

  0
ENDBLK
  5
E
100
AcDbEntity
  8
0
100
AcDbBlockEnd
  0
BLOCK
  5
F
100
AcDbEntity
 67
     1
  8
0
100
AcDbBlockBegin
  2
*PAPER_SPACE
 70
     0
 10
0.0
 20
0.0
 30
0.0
  3
*PAPER_SPACE
  1

  0
ENDBLK
  5
10
100
AcDbEntity
 67
     1
  8
0
100
AcDbBlockEnd
  0
ENDSEC
  0
SECTION
  2
ENTITIES
  0
VIEWPORT
  5
6C
100
AcDbEntity
 67
     1
  8
0
 62
     0
 48
0.0
100
AcDbViewport
 10
0.0
 20
0.0
 30
0.0
 40
1000.0
 41
1000.0
 68
     1
 69
     1
1001
ACAD
1000
MVIEW
1002
{
1070
    16
1010
0.0
1020
0.0
1030
0.0
1010
0.0
1020
0.0
1030
1.0
1040
0.0
1040
1000.0
1040
0.0
1040
0.0
1040
50.0
1040
0.0
1040
0.0
1070
     0
1070
   100
1070
     1
1070
     1
1070
     0
1070
     0
1070
     0
1070
     0
1040
0.0
1040
0.0
1040
0.0
1040
1.0
1040
1.0
1040
1.0
1040
1.0
1070
     0
1002
{
1002
}
1002
}
  0
ARC
  5
24
100
AcDbEntity
  8
0
 62
     7
100
AcDbCircle
 10
-8.48521
 20
9.178846
 30
0.0
 40
12.5
210
0.0
220
0.0
230
1.0
100
AcDbArc
 50
307.248745
 51
312.751255
  0
LINE
  5
25
100
AcDbEntity
  8
0
 62
     7
 48
0.036454
100
AcDbLine
 10
-0.341071
 20
1.417693
 30
0.0
 11
0.0
 21
0.0
 31
0.0
210
0.0
220
0.0
230
1.0
  0
ARC
  5
26
100
AcDbEntity
  8
0
 62
     7
100
AcDbCircle
 10
-8.48521
 20
9.178846
 30
0.0
 40
11.25
210
0.0
220
0.0
230
1.0
100
AcDbArc
 50
316.37937
 51
323.62063
  0
LINE
  5
27
100
AcDbEntity
  8
0
 62
     7
 48
0.036454
100
AcDbLine
 10
2.027629
 20
2.416434
 30
0.0
 11
0.572248
 21
2.506144
 31
0.0
210
0.0
220
0.0
230
1.0
  0
ARC
  5
28
100
AcDbEntity
  8
0
 62
     7
100
AcDbCircle
 10
-8.48521
 20
9.178846
 30
0.0
 40
12.5
210
0.0
220
0.0
230
1.0
100
AcDbArc
 50
327.248745
 51
332.751255
  0
LINE
  5
29
100
AcDbEntity
  8
0
 62
     7
 48
0.036454
100
AcDbLine
 10
1.822248
 20
4.671207
 30
0.0
 11
2.627629
 21
3.455665
 31
0.0
210
0.0
220
0.0
230
1.0
  0
ARC
  5
2A
100
AcDbEntity
  8
0
 62
     7
100
AcDbCircle
 10
-8.48521
 20
9.178846
 30
0.0
 40
11.25
210
0.0
220
0.0
230
1.0
100
AcDbArc
 50
336.37937
 51
343.62063
  0
LINE
  5
2B
100
AcDbEntity
  8
0
 62
     7
 48
0.036454
100
AcDbLine
 10
3.706508
 20
6.419861
 30
0.0
 11
2.308215
 21
6.00639
 31
0.0
210
0.0
220
0.0
230
1.0
  0
ARC
  5
2C
100
AcDbEntity
  8
0
 62
     7
100
AcDbCircle
 10
-8.48521
 20
9.178846
 30
0.0
 40
12.5
210
0.0
220
0.0
230
1.0
100
AcDbArc
 50
347.248745
 51
352.751255
  0
LINE
  5
2D
100
AcDbEntity
  8
0
 62
     7
 48
0.036454
100
AcDbLine
 10
2.742335
 20
8.46841
 30
0.0
 11
3.914886
 21
7.60163
 31
0.0
210
0.0
220
0.0
230
1.0
  0
ARC
  5
2E
100
AcDbEntity
  8
0
 62
     7
100
AcDbCircle
 10
-8.48521
 20
9.178846
 30
0.0
 40
11.25
210
0.0
220
0.0
230
1.0
100
AcDbArc
 50
356.37937
 51
3.62063
  0
LINE
  5
2F
100
AcDbEntity
  8
0
 62
     7
 48
0.036454
100
AcDbLine
 10
3.914886
 20
10.756061
 30
0.0
 11
2.742335
 21
9.889282
 31
0.0
210
0.0
220
0.0
230
1.0
  0
ARC
  5
30
100
AcDbEntity
  8
0
 62
     7
100
AcDbCircle
 10
-8.48521
 20
9.178846
 30
0.0
 40
12.5
210
0.0
220
0.0
230
1.0
100
AcDbArc
 50
7.248745
 51
12.751255
  0
LINE
  5
31
100
AcDbEntity
  8
0
 62
     7
 48
0.036454
100
AcDbLine
 10
2.308215
 20
12.351301
 30
0.0
 11
3.706508
 21
11.93783
 31
0.0
210
0.0
220
0.0
230
1.0
  0
ARC
  5
32
100
AcDbEntity
  8
0
 62
     7
100
AcDbCircle
 10
-8.48521
 20
9.178846
 30
0.0
 40
11.25
210
0.0
220
0.0
230
1.0
100
AcDbArc
 50
16.37937
 51
23.62063
  0
LINE
  5
33
100
AcDbEntity
  8
0
 62
     7
 48
0.036454
100
AcDbLine
 10
2.627629
 20
14.902026
 30
0.0
 11
1.822248
 21
13.686484
 31
0.0
210
0.0
220
0.0
230
1.0
  0
ARC
  5
34
100
AcDbEntity
  8
0
 62
     7
100
AcDbCircle
 10
-8.48521
 20
9.178846
 30
0.0
 40
12.5
210
0.0
220
0.0
230
1.0
100
AcDbArc
 50
27.248745
 51
32.751255
  0
LINE
  5
35
100
AcDbEntity
  8
0
 62
     7
 48
0.036454
100
AcDbLine
 10
0.572248
 20
15.851547
 30
0.0
 11
2.027629
 21
15.941257
 31
0.0
210
0.0
220
0.0
230
1.0
  0
ARC
  5
36
100
AcDbEntity
  8
0
 62
     7
100
AcDbCircle
 10
-8.48521
 20
9.178846
 30
0.0
 40
11.25
210
0.0
220
0.0
230
1.0
100
AcDbArc
 50
36.37937
 51
43.62063
  0
LINE
  5
37
100
AcDbEntity
  8
0
 62
     7
 48
0.036454
100
AcDbLine
 10
0.0
 20
18.357691
 30
0.0
 11
-0.341071
 21
16.939998
 31
0.0
210
0.0
220
0.0
230
1.0
  0
ARC
  5
38
100
AcDbEntity
  8
0
 62
     7
100
AcDbCircle
 10
-8.48521
 20
9.178846
 30
0.0
 40
12.5
210
0.0
220
0.0
230
1.0
100
AcDbArc
 50
47.248745
 51
52.751255
  0
LINE
  5
39
100
AcDbEntity
  8
0
 62
     7
 48
0.036454
100
AcDbLine
 10
-2.256182
 20
18.546967
 30
0.0
 11
-0.919253
 21
19.129036
 31
0.0
210
0.0
220
0.0
230
1.0
  0
ARC
  5
3A
100
AcDbEntity
  8
0
 62
     7
100
AcDbCircle
 10
-8.48521
 20
9.178846
 30
0.0
 40
11.25
210
0.0
220
0.0
230
1.0
100
AcDbArc
 50
56.37937
 51
63.62063
  0
LINE
  5
3B
100
AcDbEntity
  8
0
 62
     7
 48
0.036454
100
AcDbLine
 10
-3.651071
 20
20.706252
 30
0.0
 11
-3.486693
 21
19.257403
 31
0.0
210
0.0
220
0.0
230
1.0
  0
ARC
  5
3C
100
AcDbEntity
  8
0
 62
     7
100
AcDbCircle
 10
-8.48521
 20
9.178846
 30
0.0
 40
12.5
210
0.0
220
0.0
230
1.0
100
AcDbArc
 50
67.248745
 51
72.751255
  0
LINE
  5
3D
100
AcDbEntity
  8
0
 62
     7
 48
0.036454
100
AcDbLine
 10
-5.835925
 20
20.112454
 30
0.0
 11
-4.778702
 21
21.116676
 31
0.0
210
0.0
220
0.0
230
1.0
  0
ARC
  5
3E
100
AcDbEntity
  8
0
 62
     7
100
AcDbCircle
 10
-8.48521
 20
9.178846
 30
0.0
 40
11.25
210
0.0
220
0.0
230
1.0
100
AcDbArc
 50
76.37937
 51
83.62063
  0
LINE
  5
3F
100
AcDbEntity
  8
0
 62
     7
 48
0.036454
100
AcDbLine
 10
-7.88521
 20
21.664437
 30
0.0
 11
-7.23521
 21
20.359185
 31
0.0
210
0.0
220
0.0
230
1.0
  0
ARC
  5
40
100
AcDbEntity
  8
0
 62
     7
100
AcDbCircle
 10
-8.48521
 20
9.178846
 30
0.0
 40
12.5
210
0.0
220
0.0
230
1.0
100
AcDbArc
 50
87.248745
 51
92.751255
  0
LINE
  5
41
100
AcDbEntity
  8
0
 62
     7
 48
0.036454
100
AcDbLine
 10
-9.73521
 20
20.359185
 30
0.0
 11
-9.08521
 21
21.664437
 31
0.0
210
0.0
220
0.0
230
1.0
  0
ARC
  5
42
100
AcDbEntity
  8
0
 62
     7
100
AcDbCircle
 10
-8.48521
 20
9.178846
 30
0.0
 40
11.25
210
0.0
220
0.0
230
1.0
100
AcDbArc
 50
96.37937
 51
103.62063
  0
LINE
  5
43
100
AcDbEntity
  8
0
 62
     7
 48
0.036454
100
AcDbLine
 10
-12.191719
 20
21.116676
 30
0.0
 11
-11.134496
 21
20.112454
 31
0.0
210
0.0
220
0.0
230
1.0
  0
ARC
  5
44
100
AcDbEntity
  8
0
 62
     7
100
AcDbCircle
 10
-8.48521
 20
9.178846
 30
0.0
 40
12.5
210
0.0
220
0.0
230
1.0
100
AcDbArc
 50
107.248745
 51
112.751255
  0
LINE
  5
45
100
AcDbEntity
  8
0
 62
     7
 48
0.036454
100
AcDbLine
 10
-13.483728
 20
19.257403
 30
0.0
 11
-13.31935
 21
20.706252
 31
0.0
210
0.0
220
0.0
230
1.0
  0
ARC
  5
46
100
AcDbEntity
  8
0
 62
     7
100
AcDbCircle
 10
-8.48521
 20
9.178846
 30
0.0
 40
11.25
210
0.0
220
0.0
230
1.0
100
AcDbArc
 50
116.37937
 51
123.62063
  0
LINE
  5
47
100
AcDbEntity
  8
0
 62
     7
 48
0.036454
100
AcDbLine
 10
-16.051167
 20
19.129036
 30
0.0
 11
-14.714239
 21
18.546967
 31
0.0
210
0.0
220
0.0
230
1.0
  0
ARC
  5
48
100
AcDbEntity
  8
0
 62
     7
100
AcDbCircle
 10
-8.48521
 20
9.178846
 30
0.0
 40
12.5
210
0.0
220
0.0
230
1.0
100
AcDbArc
 50
127.248745
 51
132.751255
  0
LINE
  5
49
100
AcDbEntity
  8
0
 62
     7
 48
0.036454
100
AcDbLine
 10
-16.62935
 20
16.939998
 30
0.0
 11
-16.970421
 21
18.357691
 31
0.0
210
0.0
220
0.0
230
1.0
  0
ARC
  5
4A
100
AcDbEntity
  8
0
 62
     7
100
AcDbCircle
 10
-8.48521
 20
9.178846
 30
0.0
 40
11.25
210
0.0
220
0.0
230
1.0
100
AcDbArc
 50
136.37937
 51
143.62063
  0
LINE
  5
4B
100
AcDbEntity
  8
0
 62
     7
 48
0.036454
100
AcDbLine
 10
-18.99805
 20
15.941257
 30
0.0
 11
-17.542669
 21
15.851547
 31
0.0
210
0.0
220
0.0
230
1.0
  0
ARC
  5
4C
100
AcDbEntity
  8
0
 62
     7
100
AcDbCircle
 10
-8.48521
 20
9.178846
 30
0.0
 40
12.5
210
0.0
220
0.0
230
1.0
100
AcDbArc
 50
147.248745
 51
152.751255
  0
LINE
  5
4D
100
AcDbEntity
  8
0
 62
     7
 48
0.036454
100
AcDbLine
 10
-18.792669
 20
13.686484
 30
0.0
 11
-19.59805
 21
14.902026
 31
0.0
210
0.0
220
0.0
230
1.0
  0
ARC
  5
4E
100
AcDbEntity
  8
0
 62
     7
100
AcDbCircle
 10
-8.48521
 20
9.178846
 30
0.0
 40
11.25
210
0.0
220
0.0
230
1.0
100
AcDbArc
 50
156.37937
 51
163.62063
  0
LINE
  5
4F
100
AcDbEntity
  8
0
 62
     7
 48
0.036454
100
AcDbLine
 10
-20.676929
 20
11.93783
 30
0.0
 11
-19.278635
 21
12.351301
 31
0.0
210
0.0
220
0.0
230
1.0
  0
ARC
  5
50
100
AcDbEntity
  8
0
 62
     7
100
AcDbCircle
 10
-8.48521
 20
9.178846
 30
0.0
 40
12.5
210
0.0
220
0.0
230
1.0
100
AcDbArc
 50
167.248745
 51
172.751255
  0
LINE
  5
51
100
AcDbEntity
  8
0
 62
     7
 48
0.036454
100
AcDbLine
 10
-19.712756
 20
9.889282
 30
0.0
 11
-20.885307
 21
10.756061
 31
0.0
210
0.0
220
0.0
230
1.0
  0
ARC
  5
52
100
AcDbEntity
  8
0
 62
     7
100
AcDbCircle
 10
-8.48521
 20
9.178846
 30
0.0
 40
11.25
210
0.0
220
0.0
230
1.0
100
AcDbArc
 50
176.37937
 51
183.62063
  0
LINE
  5
53
100
AcDbEntity
  8
0
 62
     7
 48
0.036454
100
AcDbLine
 10
-20.885307
 20
7.60163
 30
0.0
 11
-19.712756
 21
8.46841
 31
0.0
210
0.0
220
0.0
230
1.0
  0
ARC
  5
54
100
AcDbEntity
  8
0
 62
     7
100
AcDbCircle
 10
-8.48521
 20
9.178846
 30
0.0
 40
12.5
210
0.0
220
0.0
230
1.0
100
AcDbArc
 50
187.248745
 51
192.751255
  0
LINE
  5
55
100
AcDbEntity
  8
0
 62
     7
 48
0.036454
100
AcDbLine
 10
-19.278635
 20
6.00639
 30
0.0
 11
-20.676929
 21
6.419861
 31
0.0
210
0.0
220
0.0
230
1.0
  0
ARC
  5
56
100
AcDbEntity
  8
0
 62
     7
100
AcDbCircle
 10
-8.48521
 20
9.178846
 30
0.0
 40
11.25
210
0.0
220
0.0
230
1.0
100
AcDbArc
 50
196.37937
 51
203.62063
  0
LINE
  5
57
100
AcDbEntity
  8
0
 62
     7
 48
0.036454
100
AcDbLine
 10
-19.59805
 20
3.455665
 30
0.0
 11
-18.792669
 21
4.671207
 31
0.0
210
0.0
220
0.0
230
1.0
  0
ARC
  5
58
100
AcDbEntity
  8
0
 62
     7
100
AcDbCircle
 10
-8.48521
 20
9.178846
 30
0.0
 40
12.5
210
0.0
220
0.0
230
1.0
100
AcDbArc
 50
207.248745
 51
212.751255
  0
LINE
  5
59
100
AcDbEntity
  8
0
 62
     7
 48
0.036454
100
AcDbLine
 10
-17.542669
 20
2.506144
 30
0.0
 11
-18.99805
 21
2.416434
 31
0.0
210
0.0
220
0.0
230
1.0
  0
ARC
  5
5A
100
AcDbEntity
  8
0
 62
     7
100
AcDbCircle
 10
-8.48521
 20
9.178846
 30
0.0
 40
11.25
210
0.0
220
0.0
230
1.0
100
AcDbArc
 50
216.37937
 51
223.62063
  0
LINE
  5
5B
100
AcDbEntity
  8
0
 62
     7
 48
0.036454
100
AcDbLine
 10
-16.970421
 20
0.0
 30
0.0
 11
-16.62935
 21
1.417693
 31
0.0
210
0.0
220
0.0
230
1.0
  0
ARC
  5
5C
100
AcDbEntity
  8
0
 62
     7
100
AcDbCircle
 10
-8.48521
 20
9.178846
 30
0.0
 40
12.5
210
0.0
220
0.0
230
1.0
100
AcDbArc
 50
227.248745
 51
232.751255
  0
LINE
  5
5D
100
AcDbEntity
  8
0
 62
     7
 48
0.036454
100
AcDbLine
 10
-14.714239
 20
-0.189276
 30
0.0
 11
-16.051167
 21
-0.771345
 31
0.0
210
0.0
220
0.0
230
1.0
  0
ARC
  5
5E
100
AcDbEntity
  8
0
 62
     7
100
AcDbCircle
 10
-8.48521
 20
9.178846
 30
0.0
 40
11.25
210
0.0
220
0.0
230
1.0
100
AcDbArc
 50
236.37937
 51
243.62063
  0
LINE
  5
5F
100
AcDbEntity
  8
0
 62
     7
 48
0.036454
100
AcDbLine
 10
-13.31935
 20
-2.348561
 30
0.0
 11
-13.483728
 21
-0.899712
 31
0.0
210
0.0
220
0.0
230
1.0
  0
ARC
  5
60
100
AcDbEntity
  8
0
 62
     7
100
AcDbCircle
 10
-8.48521
 20
9.178846
 30
0.0
 40
12.5
210
0.0
220
0.0
230
1.0
100
AcDbArc
 50
247.248745
 51
252.751255
  0
LINE
  5
61
100
AcDbEntity
  8
0
 62
     7
 48
0.036454
100
AcDbLine
 10
-11.134496
 20
-1.754762
 30
0.0
 11
-12.191719
 21
-2.758985
 31
0.0
210
0.0
220
0.0
230
1.0
  0
ARC
  5
62
100
AcDbEntity
  8
0
 62
     7
100
AcDbCircle
 10
-8.48521
 20
9.178846
 30
0.0
 40
11.25
210
0.0
220
0.0
230
1.0
100
AcDbArc
 50
256.37937
 51
263.62063
  0
LINE
  5
63
100
AcDbEntity
  8
0
 62
     7
 48
0.036454
100
AcDbLine
 10
-9.08521
 20
-3.306746
 30
0.0
 11
-9.73521
 21
-2.001494
 31
0.0
210
0.0
220
0.0
230
1.0
  0
ARC
  5
64
100
AcDbEntity
  8
0
 62
     7
100
AcDbCircle
 10
-8.48521
 20
9.178846
 30
0.0
 40
12.5
210
0.0
220
0.0
230
1.0
100
AcDbArc
 50
267.248745
 51
272.751255
  0
LINE
  5
65
100
AcDbEntity
  8
0
 62
     7
 48
0.036454
100
AcDbLine
 10
-7.23521
 20
-2.001494
 30
0.0
 11
-7.88521
 21
-3.306746
 31
0.0
210
0.0
220
0.0
230
1.0
  0
ARC
  5
66
100
AcDbEntity
  8
0
 62
     7
100
AcDbCircle
 10
-8.48521
 20
9.178846
 30
0.0
 40
11.25
210
0.0
220
0.0
230
1.0
100
AcDbArc
 50
276.37937
 51
283.62063
  0
LINE
  5
67
100
AcDbEntity
  8
0
 62
     7
 48
0.036454
100
AcDbLine
 10
-4.778702
 20
-2.758985
 30
0.0
 11
-5.835925
 21
-1.754762
 31
0.0
210
0.0
220
0.0
230
1.0
  0
ARC
  5
68
100
AcDbEntity
  8
0
 62
     7
100
AcDbCircle
 10
-8.48521
 20
9.178846
 30
0.0
 40
12.5
210
0.0
220
0.0
230
1.0
100
AcDbArc
 50
287.248745
 51
292.751255
  0
LINE
  5
69
100
AcDbEntity
  8
0
 62
     7
 48
0.036454
100
AcDbLine
 10
-3.486693
 20
-0.899712
 30
0.0
 11
-3.651071
 21
-2.348561
 31
0.0
210
0.0
220
0.0
230
1.0
  0
ARC
  5
6A
100
AcDbEntity
  8
0
 62
     7
100
AcDbCircle
 10
-8.48521
 20
9.178846
 30
0.0
 40
11.25
210
0.0
220
0.0
230
1.0
100
AcDbArc
 50
296.37937
 51
303.62063
  0
LINE
  5
6B
100
AcDbEntity
  8
0
 62
     7
 48
0.036454
100
AcDbLine
 10
-2.256182
 20
-0.189276
 30
0.0
 11
-0.919253
 21
-0.771345
 31
0.0
210
0.0
220
0.0
230
1.0
  0
ENDSEC
  0
SECTION
  2
OBJECTS
  0
DICTIONARY
  5
19
100
AcDbDictionary
  3
ACAD_GROUP
350
1A
  3
ACAD_MLINESTYLE
350
1B
  0
DICTIONARY
  5
1A
102
{ACAD_REACTORS
330
19
102
}
100
AcDbDictionary
  0
DICTIONARY
  5
1B
102
{ACAD_REACTORS
330
19
102
}
100
AcDbDictionary
  3
STANDARD
350
1C
  0
MLINESTYLE
  5
1C
102
{ACAD_REACTORS
330
1B
102
}
100
AcDbMlineStyle
  2
STANDARD
 70
     0
  3

 62
     0
 51
90.0
 52
90.0
 71
     2
 49
0.5
 62
   256
  6
BYLAYER
 49
-0.5
 62
   256
  6
BYLAYER
  0
ENDSEC
  0
EOF
