  0
SECTION
  2
HEADER
  9
$ACADVER
  1
AC1014
  9
$ACADMAINTVER
 70
     0
  9
$DWGCODEPAGE
  3
ANSI_1252
  9
$INSBASE
 10
0.0
 20
0.0
 30
0.0
  9
$EXTMIN
 10
-27.141882
 20
-1.203576
 30
0.0
  9
$EXTMAX
 10
13.353118
 20
39.258968
 30
2.0
  9
$LIMMIN
 10
0.0
 20
0.0
  9
$LIMMAX
 10
12.0
 20
9.0
  9
$ORTHOMODE
 70
     0
  9
$REGENMODE
 70
     1
  9
$FILLMODE
 70
     1
  9
$QTEXTMODE
 70
     0
  9
$MIRRTEXT
 70
     1
  9
$DRAGMODE
 70
     2
  9
$LTSCALE
 40
1.0
  9
$OSMODE
 70
     0
  9
$ATTMODE
 70
     1
  9
$TEXTSIZE
 40
0.2
  9
$TRACEWID
 40
0.05
  9
$TEXTSTYLE
  7
STANDARD
  9
$CLAYER
  8
0
  9
$CELTYPE
  6
BYLAYER
  9
$CECOLOR
 62
   256
  9
$CELTSCALE
 40
1.0
  9
$DELOBJ
 70
     1
  9
$DISPSILH
 70
     0
  9
$DIMSCALE
 40
1.0
  9
$DIMASZ
 40
0.18
  9
$DIMEXO
 40
0.0625
  9
$DIMDLI
 40
0.38
  9
$DIMRND
 40
0.0
  9
$DIMDLE
 40
0.0
  9
$DIMEXE
 40
0.18
  9
$DIMTP
 40
0.0
  9
$DIMTM
 40
0.0
  9
$DIMTXT
 40
0.18
  9
$DIMCEN
 40
0.09
  9
$DIMTSZ
 40
0.0
  9
$DIMTOL
 70
     0
  9
$DIMLIM
 70
     0
  9
$DIMTIH
 70
     1
  9
$DIMTOH
 70
     1
  9
$DIMSE1
 70
     0
  9
$DIMSE2
 70
     0
  9
$DIMTAD
 70
     0
  9
$DIMZIN
 70
     0
  9
$DIMBLK
  1

  9
$DIMASO
 70
     1
  9
$DIMSHO
 70
     1
  9
$DIMPOST
  1

  9
$DIMAPOST
  1

  9
$DIMALT
 70
     0
  9
$DIMALTD
 70
     2
  9
$DIMALTF
 40
25.4
  9
$DIMLFAC
 40
1.0
  9
$DIMTOFL
 70
     0
  9
$DIMTVP
 40
0.0
  9
$DIMTIX
 70
     0
  9
$DIMSOXD
 70
     0
  9
$DIMSAH
 70
     0
  9
$DIMBLK1
  1

  9
$DIMBLK2
  1

  9
$DIMSTYLE
  2

  9
$DIMCLRD
 70
     0
  9
$DIMCLRE
 70
     0
  9
$DIMCLRT
 70
     0
  9
$DIMTFAC
 40
1.0
  9
$DIMGAP
 40
0.09
  9
$DIMJUST
 70
     0
  9
$DIMSD1
 70
     0
  9
$DIMSD2
 70
     0
  9
$DIMTOLJ
 70
     1
  9
$DIMTZIN
 70
     0
  9
$DIMALTZ
 70
     0
  9
$DIMALTTZ
 70
     0
  9
$DIMFIT
 70
     3
  9
$DIMUPT
 70
     0
  9
$DIMUNIT
 70
     2
  9
$DIMDEC
 70
     4
  9
$DIMTDEC
 70
     4
  9
$DIMALTU
 70
     2
  9
$DIMALTTD
 70
     2
  9
$DIMTXSTY
  7
STANDARD
  9
$DIMAUNIT
 70
     0
  9
$LUNITS
 70
     2
  9
$LUPREC
 70
     4
  9
$SKETCHINC
 40
0.1
  9
$FILLETRAD
 40
0.5
  9
$AUNITS
 70
     0
  9
$AUPREC
 70
     0
  9
$MENU
  1
.
  9
$ELEVATION
 40
0.0
  9
$PELEVATION
 40
0.0
  9
$THICKNESS
 40
0.0
  9
$LIMCHECK
 70
     0
  9
$BLIPMODE
 70
     1
  9
$CHAMFERA
 40
0.0
  9
$CHAMFERB
 40
0.0
  9
$CHAMFERC
 40
0.0
  9
$CHAMFERD
 40
0.0
  9
$SKPOLY
 70
     0
  9
$TDCREATE
 40
0.000000000
  9
$TDUPDATE
 40
0.000000000
  9
$TDINDWG
 40
0.0000000000
  9
$TDUSRTIMER
 40
0.0000000000
  9
$USRTIMER
 70
     1
  9
$ANGBASE
 50
0.0
  9
$ANGDIR
 70
     0
  9
$PDMODE
 70
     0
  9
$PDSIZE
 40
0.0
  9
$PLINEWID
 40
0.0
  9
$COORDS
 70
     0
  9
$SPLFRAME
 70
     0
  9
$SPLINETYPE
 70
     6
  9
$SPLINESEGS
 70
     8
  9
$ATTDIA
 70
     0
  9
$ATTREQ
 70
     1
  9
$HANDLING
 70
     1
  9
$HANDSEED
  5
C1
  9
$SURFTAB1
 70
     6
  9
$SURFTAB2
 70
     6
  9
$SURFTYPE
 70
     6
  9
$SURFU
 70
     6
  9
$SURFV
 70
     6
  9
$UCSNAME
  2

  9
$UCSORG
 10
0.0
 20
0.0
 30
0.0
  9
$UCSXDIR
 10
1.0
 20
0.0
 30
0.0
  9
$UCSYDIR
 10
0.0
 20
1.0
 30
0.0
  9
$PUCSNAME
  2

  9
$PUCSORG
 10
0.0
 20
0.0
 30
0.0
  9
$PUCSXDIR
 10
1.0
 20
0.0
 30
0.0
  9
$PUCSYDIR
 10
0.0
 20
1.0
 30
0.0
  9
$USERI1
 70
     0
  9
$USERI2
 70
     0
  9
$USERI3
 70
     0
  9
$USERI4
 70
     0
  9
$USERI5
 70
     0
  9
$USERR1
 40
0.0
  9
$USERR2
 40
0.0
  9
$USERR3
 40
0.0
  9
$USERR4
 40
0.0
  9
$USERR5
 40
0.0
  9
$WORLDVIEW
 70
     1
  9
$SHADEDGE
 70
     3
  9
$SHADEDIF
 70
    70
  9
$TILEMODE
 70
     1
  9
$MAXACTVP
 70
    48
  9
$PINSBASE
 10
0.0
 20
0.0
 30
0.0
  9
$PLIMCHECK
 70
     0
  9
$PEXTMIN
 10
-27.141882
 20
-1.203576
 30
0.0
  9
$PEXTMAX
 10
13.353118
 20
39.258968
 30
2.0
  9
$PLIMMIN
 10
0.0
 20
0.0
  9
$PLIMMAX
 10
12.0
 20
9.0
  9
$UNITMODE
 70
     0
  9
$VISRETAIN
 70
     0
  9
$PLINEGEN
 70
     0
  9
$PSLTSCALE
 70
     1
  9
$TREEDEPTH
 70
  3020
  9
$PICKSTYLE
 70
     1
  9
$CMLSTYLE
  2
STANDARD
  9
$CMLJUST
 70
     0
  9
$CMLSCALE
 40
1.0
  9
$PROXYGRAPHICS
 70
     1
  9
$MEASUREMENT
 70
     0
  0
ENDSEC
  0
SECTION
  2
CLASSES
  0
CLASS
  1
LWPOLYLINE
  2
AcDbPolyline
  3
"AutoCAD"
 90
        0
280
     0
281
     1
  0
CLASS
  1
IMAGE
  2
AcDbRasterImage
  3
ISM
 90
      127
280
     0
281
     1
  0
CLASS
  1
OLE2FRAME
  2
AcDbOle2Frame
  3
""
 90
        0
280
     0
281
     1
  0
CLASS
  1
HATCH
  2
AcDbHatch
  3
"ACAD_SEDONA"
 90
        0
280
     0
281
     1
  0
CLASS
  1
DICTIONARYVAR
  2
AcDbDictionaryVar
  3
"AutoCAD"
 90
        0
280
     0
281
     0
  0
CLASS
  1
RASTERVARIABLES
  2
AcDbRasterVariables
  3
ISM
 90
        0
280
     0
281
     0
  0
CLASS
  1
IMAGEDEF
  2
AcDbRasterImageDef
  3
ISM
 90
        0
280
     0
281
     0
  0
CLASS
  1
IMAGEDEF_REACTOR
  2
AcDbRasterImageDefReactor
  3
ISM
 90
        1
280
     0
281
     0
  0
CLASS
  1
IDBUFFER
  2
AcDbIdBuffer
  3
"Acad"
 90
        0
280
     0
281
     0
  0
CLASS
  1
SPATIAL_FILTER
  2
AcDbSpatialFilter
  3
"Acad"
 90
        0
280
     0
281
     0
  0
CLASS
  1
XRECORD
  2
AcDbXrecord
  3
"<Built In>"
 90
        0
280
     0
281
     0
  0
CLASS
  1
SORTENTSTABLE
  2
AcDbSortentsTable
  3
"AutoCAD"
 90
        0
280
     0
281
     0
  0
CLASS
  1
LAYER_INDEX
  2
AcDbLayerIndex
  3
"Acad"
 90
        0
280
     0
281
     0
  0
CLASS
  1
SPATIAL_INDEX
  2
AcDbSpatialIndex
  3
"Acad"
 90
        0
280
     0
281
     0
  0
CLASS
  1
OBJECT_PTR
  2
CAseDLPNTableRecord
  3
"ASE-LPNTableRecord"
 90
        1
280
     0
281
     0
  0
CLASS
  1
LAYOUT
  2
AcDbLayout
  3
"AutoCAD 2000"
 90
        0
280
     0
281
     0
  0
CLASS
  1
PLOTSETTINGS
  2
AcDbPlotSettings
  3
"AutoCAD 2000"
 90
        0
280
     0
281
     0
  0
CLASS
  1
ACDBDICTIONARYWDFLT
  2
AcDbDictionaryWithDefault
  3
"AutoCAD 2000"
 90
        0
280
     0
281
     0
  0
CLASS
  1
ACDBPLACEHOLDER
  2
AcDbPlaceHolder
  3
"AutoCAD 2000"
 90
        0
280
     0
281
     0
  0
CLASS
  1
VBA_PROJECT
  2
AcDbVbaProject
  3
"acadvba"
 90
        0
280
     0
281
     0
  0
CLASS
  1
WIPEOUT
  2
AcDbWipeout
  3
WipeOut|AutoCAD Express Tool|expresstools@autodesk.com
 90
      127
280
     0
281
     1
  0
CLASS
  1
WIPEOUTVARIABLES
  2
AcDbWipeoutVariables
  3
WipeOut|AutoCAD Express Tool|expresstools@autodesk.com
 90
        0
280
     0
281
     0
  0
CLASS
  1
RTEXT
  2
RText
  3
RText|AutoCAD Express Tool|expresstools@autodesk.com
 90
        0
280
     0
281
     1
  0
CLASS
  1
ARCALIGNEDTEXT
  2
AcDbArcAlignedText
  3
ATEXT|AutoCAD Express Tool|expresstools@autodesk.com
 90
        0
280
     0
281
     1
  0
ENDSEC
  0
SECTION
  2
TABLES
  0
TABLE
  2
VPORT
  5
7
100
AcDbSymbolTable
 70
     1
  0
VPORT
  5
15
100
AcDbSymbolTableRecord
100
AcDbViewportTableRecord
  2
*ACTIVE
 70
     0
 10
0.0
 20
0.0
 11
1.0
 21
1.0
 12
6.591288
 22
4.579184
 13
0.0
 23
0.0
 14
1.0
 24
1.0
 15
0.0
 25
0.0
 16
0.0
 26
0.0
 36
1.0
 17
0.0
 27
0.0
 37
0.0
 40
9.158369
 41
0.688564
 42
50.0
 43
0.0
 44
0.0
 50
0.0
 51
0.0
 71
     0
 72
   100
 73
     1
 74
     1
 75
     0
 76
     0
 77
     0
 78
     0
  0
ENDTAB
  0
TABLE
  2
LTYPE
  5
4
100
AcDbSymbolTable
 70
    10
  0
LTYPE
  5
11
100
AcDbSymbolTableRecord
100
AcDbLinetypeTableRecord
  2
BYBLOCK
 70
    64
  3

 72
    65
 73
     0
 40
0.0
  0
LTYPE
  5
12
100
AcDbSymbolTableRecord
100
AcDbLinetypeTableRecord
  2
BYLAYER
 70
    64
  3

 72
    65
 73
     0
 40
0.0
  0
LTYPE
  5
13
100
AcDbSymbolTableRecord
100
AcDbLinetypeTableRecord
  2
CONTINUOUS
 70
    64
  3
Solid line
 72
    65
 73
     0
 40
0.0
  0
LTYPE
  5
1D
100
AcDbSymbolTableRecord
100
AcDbLinetypeTableRecord
  2
DASHED
 70
     0
  3
__ __ __ __ __ __ __ __ __ __ __ __ __ __ __ __
 72
    65
 73
     2
 40
15.0
 49
12.0
 74
     0
 49
-3.0
 74
     0
  0
LTYPE
  5
1E
100
AcDbSymbolTableRecord
100
AcDbLinetypeTableRecord
  2
DASHDOT
 70
     0
  3
 __ . __ . __ . __ . __ . __ . __ . 
 72
    65
 73
     4
 40
18.5
 49
12.0
 74
     0
 49
-3.0
 74
     0
 49
0.5
 74
     0
 49
-3.0
 74
     0
  0
LTYPE
  5
1F
100
AcDbSymbolTableRecord
100
AcDbLinetypeTableRecord
  2
DOT
 70
     0
  3
 . . . . . . . . . . . . . . . .
 72
    65
 73
     2
 40
3.5
 49
0.5
 74
     0
 49
-3.0
 74
     0
  0
LTYPE
  5
20
100
AcDbSymbolTableRecord
100
AcDbLinetypeTableRecord
  2
DASHSPACE
 70
     0
  3
__    __    __    __    __   
 72
    65
 73
     2
 40
30.0
 49
12.0
 74
     0
 49
-18.0
 74
     0
  0
LTYPE
  5
21
100
AcDbSymbolTableRecord
100
AcDbLinetypeTableRecord
  2
DASHDOT2
 70
     0
  3
__ . . __ . . __ . . __ 
 72
    65
 73
     6
 40
22.0
 49
12.0
 74
     0
 49
-3.0
 74
     0
 49
0.5
 74
     0
 49
-3.0
 74
     0
 49
0.5
 74
     0
 49
-3.0
 74
     0
  0
LTYPE
  5
22
100
AcDbSymbolTableRecord
100
AcDbLinetypeTableRecord
  2
PHANTOM
 70
     0
  3
____________    ____    ____   _
 72
    65
 73
     6
 40
20.0
 49
10.0
 74
     0
 49
-2.0
 74
     0
 49
2.0
 74
     0
 49
-2.0
 74
     0
 49
2.0
 74
     0
 49
-2.0
 74
     0
  0
LTYPE
  5
23
100
AcDbSymbolTableRecord
100
AcDbLinetypeTableRecord
  2
AXES
 70
     0
  3
________  __  ________  __  _____
 72
    65
 73
     4
 40
24.0
 49
15.0
 74
     0
 49
-3.0
 74
     0
 49
3.0
 74
     0
 49
-3.0
 74
     0
  0
ENDTAB
  0
TABLE
  2
LAYER
  5
2
100
AcDbSymbolTable
 70
     1
  0
LAYER
  5
14
100
AcDbSymbolTableRecord
100
AcDbLayerTableRecord
  2
0
 70
     0
 62
     7
  6
CONTINUOUS
  0
ENDTAB
  0
TABLE
  2
STYLE
  5
3
100
AcDbSymbolTable
 70
     1
  0
STYLE
  5
17
100
AcDbSymbolTableRecord
100
AcDbTextStyleTableRecord
  2
STANDARD
 70
     0
 40
0.0
 41
1.0
 50
0.0
 71
     0
 42
0.0
  3
txt
  4

  0
ENDTAB
  0
TABLE
  2
VIEW
  5
5
100
AcDbSymbolTable
 70
     0
  0
ENDTAB
  0
TABLE
  2
UCS
  5
6
100
AcDbSymbolTable
 70
     0
  0
ENDTAB
  0
TABLE
  2
APPID
  5
8
100
AcDbSymbolTable
 70
     1
  0
APPID
  5
16
100
AcDbSymbolTableRecord
100
AcDbRegAppTableRecord
  2
ACAD
 70
     0
  0
ENDTAB
  0
TABLE
  2
DIMSTYLE
  5
9
100
AcDbSymbolTable
 70
     1
  0
DIMSTYLE
105
18
100
AcDbSymbolTableRecord
100
AcDbDimStyleTableRecord
  2
STANDARD
 70
     0
  3

  4

  5

  6

  7

 40
1.0
 41
0.18
 42
0.0625
 43
0.38
 44
0.18
 45
0.0
 46
0.0
 47
0.0
 48
0.0
 71
     0
 72
     0
 73
     1
 74
     1
 75
     0
 76
     0
 77
     0
 78
     0
140
0.18
141
0.09
142
0.0
143
25.4
144
1.0
145
0.0
146
1.0
147
0.09
170
     0
171
     2
172
     0
173
     0
174
     0
175
     0
176
     0
177
     0
178
     0
270
     2
271
     4
272
     4
273
     2
274
     2
275
     0
280
     0
281
     0
282
     0
283
     1
284
     0
285
     0
286
     0
287
     3
288
     0
340
17
  0
ENDTAB
  0
TABLE
  2
BLOCK_RECORD
  5
1
100
AcDbSymbolTable
 70
     0
  0
BLOCK_RECORD
  5
A
100
AcDbSymbolTableRecord
100
AcDbBlockTableRecord
  2
*MODEL_SPACE
  0
BLOCK_RECORD
  5
B
100
AcDbSymbolTableRecord
100
AcDbBlockTableRecord
  2
*PAPER_SPACE
  0
ENDTAB
  0
ENDSEC
  0
SECTION
  2
BLOCKS
  0
BLOCK
  5
D
100
AcDbEntity
  8
0
100
AcDbBlockBegin
  2
*MODEL_SPACE
 70
     0
 10
0.0
 20
0.0
 30
0.0
  3
*MODEL_SPACE
  1

  0
ENDBLK
  5
E
100
AcDbEntity
  8
0
100
AcDbBlockEnd
  0
BLOCK
  5
F
100
AcDbEntity
 67
     1
  8
0
100
AcDbBlockBegin
  2
*PAPER_SPACE
 70
     0
 10
0.0
 20
0.0
 30
0.0
  3
*PAPER_SPACE
  1

  0
ENDBLK
  5
10
100
AcDbEntity
 67
     1
  8
0
100
AcDbBlockEnd
  0
ENDSEC
  0
SECTION
  2
ENTITIES
  0
VIEWPORT
  5
C0
100
AcDbEntity
 67
     1
  8
0
 62
     0
 48
0.0
100
AcDbViewport
 10
0.0
 20
0.0
 30
0.0
 40
1000.0
 41
1000.0
 68
     1
 69
     1
1001
ACAD
1000
MVIEW
1002
{
1070
    16
1010
0.0
1020
0.0
1030
0.0
1010
0.0
1020
0.0
1030
1.0
1040
0.0
1040
1000.0
1040
0.0
1040
0.0
1040
50.0
1040
0.0
1040
0.0
1070
     0
1070
   100
1070
     1
1070
     1
1070
     0
1070
     0
1070
     0
1070
     0
1040
0.0
1040
0.0
1040
0.0
1040
1.0
1040
1.0
1040
1.0
1040
1.0
1070
     0
1002
{
1002
}
1002
}
  0
ARC
  5
24
100
AcDbEntity
  8
0
 62
     7
100
AcDbCircle
 10
-6.894299
 20
19.040251
 30
0.0
 40
20.25
210
0.0
220
0.0
230
1.0
100
AcDbArc
 50
287.075146
 51
289.904854
  0
LINE
  5
25
100
AcDbEntity
  8
0
 62
     7
 48
0.036511
100
AcDbLine
 10
0.0
 20
0.0
 30
0.0
 11
0.257369
 21
1.437591
 31
0.0
210
0.0
220
0.0
230
1.0
  0
ARC
  5
26
100
AcDbEntity
  8
0
 62
     7
100
AcDbCircle
 10
-6.894299
 20
19.040251
 30
0.0
 40
19.0
210
0.0
220
0.0
230
1.0
100
AcDbArc
 50
292.111091
 51
294.098909
  0
LINE
  5
27
100
AcDbEntity
  8
0
 62
     7
 48
0.036511
100
AcDbLine
 10
0.863649
 20
1.696253
 30
0.0
 11
2.079523
 21
0.887206
 31
0.0
210
0.0
220
0.0
230
1.0
  0
ARC
  5
28
100
AcDbEntity
  8
0
 62
     7
100
AcDbCircle
 10
-6.894299
 20
19.040251
 30
0.0
 40
20.25
210
0.0
220
0.0
230
1.0
100
AcDbArc
 50
296.305146
 51
299.134854
  0
LINE
  5
29
100
AcDbEntity
  8
0
 62
     7
 48
0.036511
100
AcDbLine
 10
2.964754
 20
1.352357
 30
0.0
 11
2.988205
 21
2.812616
 31
0.0
210
0.0
220
0.0
230
1.0
  0
ARC
  5
2A
100
AcDbEntity
  8
0
 62
     7
100
AcDbCircle
 10
-6.894299
 20
19.040251
 30
0.0
 40
19.0
210
0.0
220
0.0
230
1.0
100
AcDbArc
 50
301.341091
 51
303.328909
  0
LINE
  5
2B
100
AcDbEntity
  8
0
 62
     7
 48
0.036511
100
AcDbLine
 10
3.545146
 20
3.165176
 30
0.0
 11
4.875046
 21
2.561628
 31
0.0
210
0.0
220
0.0
230
1.0
  0
ARC
  5
2C
100
AcDbEntity
  8
0
 62
     7
100
AcDbCircle
 10
-6.894299
 20
19.040251
 30
0.0
 40
20.25
210
0.0
220
0.0
230
1.0
100
AcDbArc
 50
305.535146
 51
308.364854
  0
LINE
  5
2D
100
AcDbEntity
  8
0
 62
     7
 48
0.036511
100
AcDbLine
 10
5.463131
 20
4.607859
 30
0.0
 11
5.674206
 21
3.162745
 31
0.0
210
0.0
220
0.0
230
1.0
  0
ARC
  5
2E
100
AcDbEntity
  8
0
 62
     7
100
AcDbCircle
 10
-6.894299
 20
19.040251
 30
0.0
 40
19.0
210
0.0
220
0.0
230
1.0
100
AcDbArc
 50
310.571091
 51
312.558909
  0
LINE
  5
2F
100
AcDbEntity
  8
0
 62
     7
 48
0.036511
100
AcDbLine
 10
5.956311
 20
5.045186
 30
0.0
 11
7.3658
 21
4.662766
 31
0.0
210
0.0
220
0.0
230
1.0
  0
ARC
  5
30
100
AcDbEntity
  8
0
 62
     7
100
AcDbCircle
 10
-6.894299
 20
19.040251
 30
0.0
 40
20.25
210
0.0
220
0.0
230
1.0
100
AcDbArc
 50
314.765146
 51
317.594854
  0
LINE
  5
31
100
AcDbEntity
  8
0
 62
     7
 48
0.036511
100
AcDbLine
 10
7.618059
 20
6.776831
 30
0.0
 11
8.058195
 21
5.384284
 31
0.0
210
0.0
220
0.0
230
1.0
  0
ARC
  5
32
100
AcDbEntity
  8
0
 62
     7
100
AcDbCircle
 10
-6.894299
 20
19.040251
 30
0.0
 40
19.0
210
0.0
220
0.0
230
1.0
100
AcDbArc
 50
319.801091
 51
321.788909
  0
LINE
  5
33
100
AcDbEntity
  8
0
 62
     7
 48
0.036511
100
AcDbLine
 10
8.034707
 20
7.287601
 30
0.0
 11
9.487287
 21
7.136211
 31
0.0
210
0.0
220
0.0
230
1.0
  0
ARC
  5
34
100
AcDbEntity
  8
0
 62
     7
100
AcDbCircle
 10
-6.894299
 20
19.040251
 30
0.0
 40
20.25
210
0.0
220
0.0
230
1.0
100
AcDbArc
 50
323.995146
 51
326.824854
  0
LINE
  5
35
100
AcDbEntity
  8
0
 62
     7
 48
0.036511
100
AcDbLine
 10
9.397187
 20
9.263366
 30
0.0
 11
10.054987
 21
7.959447
 31
0.0
210
0.0
220
0.0
230
1.0
  0
ARC
  5
36
100
AcDbEntity
  8
0
 62
     7
100
AcDbCircle
 10
-6.894299
 20
19.040251
 30
0.0
 40
19.0
210
0.0
220
0.0
230
1.0
100
AcDbArc
 50
329.031091
 51
331.018909
  0
LINE
  5
37
100
AcDbEntity
  8
0
 62
     7
 48
0.036511
100
AcDbLine
 10
9.726514
 20
9.834353
 30
0.0
 11
11.184569
 21
9.917914
 31
0.0
210
0.0
220
0.0
230
1.0
  0
ARC
  5
38
100
AcDbEntity
  8
0
 62
     7
100
AcDbCircle
 10
-6.894299
 20
19.040251
 30
0.0
 40
20.25
210
0.0
220
0.0
230
1.0
100
AcDbArc
 50
333.225146
 51
336.054854
  0
LINE
  5
39
100
AcDbEntity
  8
0
 62
     7
 48
0.036511
100
AcDbLine
 10
10.754445
 20
12.003075
 30
0.0
 11
11.612873
 21
10.821548
 31
0.0
210
0.0
220
0.0
230
1.0
  0
ARC
  5
3A
100
AcDbEntity
  8
0
 62
     7
100
AcDbCircle
 10
-6.894299
 20
19.040251
 30
0.0
 40
19.0
210
0.0
220
0.0
230
1.0
100
AcDbArc
 50
338.261091
 51
340.248909
  0
LINE
  5
3B
100
AcDbEntity
  8
0
 62
     7
 48
0.036511
100
AcDbLine
 10
10.987923
 20
12.619492
 30
0.0
 11
12.413696
 21
12.935841
 31
0.0
210
0.0
220
0.0
230
1.0
  0
ARC
  5
3C
100
AcDbEntity
  8
0
 62
     7
100
AcDbCircle
 10
-6.894299
 20
19.040251
 30
0.0
 40
20.25
210
0.0
220
0.0
230
1.0
100
AcDbArc
 50
342.455146
 51
345.284854
  0
LINE
  5
3D
100
AcDbEntity
  8
0
 62
     7
 48
0.036511
100
AcDbLine
 10
11.654685
 20
14.925014
 30
0.0
 11
12.691514
 21
13.896475
 31
0.0
210
0.0
220
0.0
230
1.0
  0
ARC
  5
3E
100
AcDbEntity
  8
0
 62
     7
100
AcDbCircle
 10
-6.894299
 20
19.040251
 30
0.0
 40
19.0
210
0.0
220
0.0
230
1.0
100
AcDbArc
 50
347.491091
 51
349.478909
  0
LINE
  5
3F
100
AcDbEntity
  8
0
 62
     7
 48
0.036511
100
AcDbLine
 10
11.786268
 20
15.570899
 30
0.0
 11
13.14284
 21
16.111843
 31
0.0
210
0.0
220
0.0
230
1.0
  0
ARC
  5
40
100
AcDbEntity
  8
0
 62
     7
100
AcDbCircle
 10
-6.894299
 20
19.040251
 30
0.0
 40
20.25
210
0.0
220
0.0
230
1.0
100
AcDbArc
 50
351.685146
 51
354.514854
  0
LINE
  5
41
100
AcDbEntity
  8
0
 62
     7
 48
0.036511
100
AcDbLine
 10
12.074597
 20
17.953516
 30
0.0
 11
13.262976
 21
17.1046
 31
0.0
210
0.0
220
0.0
230
1.0
  0
ARC
  5
42
100
AcDbEntity
  8
0
 62
     7
100
AcDbCircle
 10
-6.894299
 20
19.040251
 30
0.0
 40
19.0
210
0.0
220
0.0
230
1.0
100
AcDbArc
 50
356.721091
 51
358.708909
  0
LINE
  5
43
100
AcDbEntity
  8
0
 62
     7
 48
0.036511
100
AcDbLine
 10
12.100877
 20
18.612145
 30
0.0
 11
13.353118
 21
19.363676
 31
0.0
210
0.0
220
0.0
230
1.0
  0
ARC
  5
44
100
AcDbEntity
  8
0
 62
     7
100
AcDbCircle
 10
-6.894299
 20
19.040251
 30
0.0
 40
20.25
210
0.0
220
0.0
230
1.0
100
AcDbArc
 50
0.915146
 51
3.744854
  0
LINE
  5
45
100
AcDbEntity
  8
0
 62
     7
 48
0.036511
100
AcDbLine
 10
12.003305
 20
21.010161
 30
0.0
 11
13.312463
 21
20.362849
 31
0.0
210
0.0
220
0.0
230
1.0
  0
ARC
  5
46
100
AcDbEntity
  8
0
 62
     7
100
AcDbCircle
 10
-6.894299
 20
19.040251
 30
0.0
 40
19.0
210
0.0
220
0.0
230
1.0
100
AcDbArc
 50
5.951091
 51
7.938909
  0
LINE
  5
47
100
AcDbEntity
  8
0
 62
     7
 48
0.036511
100
AcDbLine
 10
11.923603
 20
21.664477
 30
0.0
 11
13.039086
 21
22.607134
 31
0.0
210
0.0
220
0.0
230
1.0
  0
ARC
  5
48
100
AcDbEntity
  8
0
 62
     7
100
AcDbCircle
 10
-6.894299
 20
19.040251
 30
0.0
 40
20.25
210
0.0
220
0.0
230
1.0
100
AcDbArc
 50
10.145146
 51
12.974854
  0
LINE
  5
49
100
AcDbEntity
  8
0
 62
     7
 48
0.036511
100
AcDbLine
 10
11.442657
 20
24.015794
 30
0.0
 11
12.838692
 21
23.58685
 31
0.0
210
0.0
220
0.0
230
1.0
  0
ARC
  5
4A
100
AcDbEntity
  8
0
 62
     7
100
AcDbCircle
 10
-6.894299
 20
19.040251
 30
0.0
 40
19.0
210
0.0
220
0.0
230
1.0
100
AcDbArc
 50
15.181091
 51
17.168909
  0
LINE
  5
4B
100
AcDbEntity
  8
0
 62
     7
 48
0.036511
100
AcDbLine
 10
11.259036
 20
24.648854
 30
0.0
 11
12.208876
 21
25.758227
 31
0.0
210
0.0
220
0.0
230
1.0
  0
ARC
  5
4C
100
AcDbEntity
  8
0
 62
     7
100
AcDbCircle
 10
-6.894299
 20
19.040251
 30
0.0
 40
20.25
210
0.0
220
0.0
230
1.0
100
AcDbArc
 50
19.375146
 51
22.204854
  0
LINE
  5
4D
100
AcDbEntity
  8
0
 62
     7
 48
0.036511
100
AcDbLine
 10
10.407171
 20
26.892584
 30
0.0
 11
11.853932
 21
26.693115
 31
0.0
210
0.0
220
0.0
230
1.0
  0
ARC
  5
4E
100
AcDbEntity
  8
0
 62
     7
100
AcDbCircle
 10
-6.894299
 20
19.040251
 30
0.0
 40
19.0
210
0.0
220
0.0
230
1.0
100
AcDbArc
 50
24.411091
 51
26.398909
  0
LINE
  5
4F
100
AcDbEntity
  8
0
 62
     7
 48
0.036511
100
AcDbLine
 10
10.124385
 20
27.487995
 30
0.0
 11
10.883986
 21
28.735357
 31
0.0
210
0.0
220
0.0
230
1.0
  0
ARC
  5
50
100
AcDbEntity
  8
0
 62
     7
100
AcDbCircle
 10
-6.894299
 20
19.040251
 30
0.0
 40
20.25
210
0.0
220
0.0
230
1.0
100
AcDbArc
 50
28.605146
 51
31.434854
  0
LINE
  5
51
100
AcDbEntity
  8
0
 62
     7
 48
0.036511
100
AcDbLine
 10
8.92366
 20
29.566037
 30
0.0
 11
10.383683
 21
29.601208
 31
0.0
210
0.0
220
0.0
230
1.0
  0
ARC
  5
52
100
AcDbEntity
  8
0
 62
     7
100
AcDbCircle
 10
-6.894299
 20
19.040251
 30
0.0
 40
19.0
210
0.0
220
0.0
230
1.0
100
AcDbArc
 50
33.641091
 51
35.628909
  0
LINE
  5
53
100
AcDbEntity
  8
0
 62
     7
 48
0.036511
100
AcDbLine
 10
8.549033
 20
30.10838
 30
0.0
 11
9.098724
 21
31.461431
 31
0.0
210
0.0
220
0.0
230
1.0
  0
ARC
  5
54
100
AcDbEntity
  8
0
 62
     7
100
AcDbCircle
 10
-6.894299
 20
19.040251
 30
0.0
 40
20.25
210
0.0
220
0.0
230
1.0
100
AcDbArc
 50
37.835146
 51
40.664854
  0
LINE
  5
55
100
AcDbEntity
  8
0
 62
     7
 48
0.036511
100
AcDbLine
 10
7.03054
 20
31.966923
 30
0.0
 11
8.466018
 21
32.235824
 31
0.0
210
0.0
220
0.0
230
1.0
  0
ARC
  5
56
100
AcDbEntity
  8
0
 62
     7
100
AcDbCircle
 10
-6.894299
 20
19.040251
 30
0.0
 40
19.0
210
0.0
220
0.0
230
1.0
100
AcDbArc
 50
42.871091
 51
44.858909
  0
LINE
  5
57
100
AcDbEntity
  8
0
 62
     7
 48
0.036511
100
AcDbLine
 10
6.573773
 20
32.442155
 30
0.0
 11
6.89932
 21
33.865856
 31
0.0
210
0.0
220
0.0
230
1.0
  0
ARC
  5
58
100
AcDbEntity
  8
0
 62
     7
100
AcDbCircle
 10
-6.894299
 20
19.040251
 30
0.0
 40
20.25
210
0.0
220
0.0
230
1.0
100
AcDbArc
 50
47.065146
 51
49.894854
  0
LINE
  5
59
100
AcDbEntity
  8
0
 62
     7
 48
0.036511
100
AcDbLine
 10
4.776834
 20
34.03307
 30
0.0
 11
6.150595
 21
34.528737
 31
0.0
210
0.0
220
0.0
230
1.0
  0
ARC
  5
5A
100
AcDbEntity
  8
0
 62
     7
100
AcDbCircle
 10
-6.894299
 20
19.040251
 30
0.0
 40
19.0
210
0.0
220
0.0
230
1.0
100
AcDbArc
 50
52.101091
 51
54.088909
  0
LINE
  5
5B
100
AcDbEntity
  8
0
 62
     7
 48
0.036511
100
AcDbLine
 10
4.249755
 20
34.428885
 30
0.0
 11
4.342728
 21
35.886369
 31
0.0
210
0.0
220
0.0
230
1.0
  0
ARC
  5
5C
100
AcDbEntity
  8
0
 62
     7
100
AcDbCircle
 10
-6.894299
 20
19.040251
 30
0.0
 40
20.25
210
0.0
220
0.0
230
1.0
100
AcDbArc
 50
56.295146
 51
59.124854
  0
LINE
  5
5D
100
AcDbEntity
  8
0
 62
     7
 48
0.036511
100
AcDbLine
 10
2.220903
 20
35.710976
 30
0.0
 11
3.497373
 21
36.420574
 31
0.0
210
0.0
220
0.0
230
1.0
  0
ARC
  5
5E
100
AcDbEntity
  8
0
 62
     7
100
AcDbCircle
 10
-6.894299
 20
19.040251
 30
0.0
 40
19.0
210
0.0
220
0.0
230
1.0
100
AcDbArc
 50
61.331091
 51
63.318909
  0
LINE
  5
5F
100
AcDbEntity
  8
0
 62
     7
 48
0.036511
100
AcDbLine
 10
1.495151
 20
37.47065
 30
0.0
 11
1.63716
 21
36.017123
 31
0.0
210
0.0
220
0.0
230
1.0
  0
ARC
  5
60
100
AcDbEntity
  8
0
 62
     7
100
AcDbCircle
 10
-6.894299
 20
19.040251
 30
0.0
 40
20.25
210
0.0
220
0.0
230
1.0
100
AcDbArc
 50
65.525146
 51
68.354854
  0
LINE
  5
61
100
AcDbEntity
  8
0
 62
     7
 48
0.036511
100
AcDbLine
 10
-0.571069
 20
36.957191
 30
0.0
 11
0.575056
 21
37.862345
 31
0.0
210
0.0
220
0.0
230
1.0
  0
ARC
  5
62
100
AcDbEntity
  8
0
 62
     7
100
AcDbCircle
 10
-6.894299
 20
19.040251
 30
0.0
 40
19.0
210
0.0
220
0.0
230
1.0
100
AcDbArc
 50
70.561091
 51
72.548909
  0
LINE
  5
63
100
AcDbEntity
  8
0
 62
     7
 48
0.036511
100
AcDbLine
 10
-1.569672
 20
38.577672
 30
0.0
 11
-1.196359
 21
37.165743
 31
0.0
210
0.0
220
0.0
230
1.0
  0
ARC
  5
64
100
AcDbEntity
  8
0
 62
     7
100
AcDbCircle
 10
-6.894299
 20
19.040251
 30
0.0
 40
20.25
210
0.0
220
0.0
230
1.0
100
AcDbArc
 50
74.755146
 51
77.584854
  0
LINE
  5
65
100
AcDbEntity
  8
0
 62
     7
 48
0.036511
100
AcDbLine
 10
-3.526781
 20
37.739444
 30
0.0
 11
-2.540681
 21
38.816714
 31
0.0
210
0.0
220
0.0
230
1.0
  0
ARC
  5
66
100
AcDbEntity
  8
0
 62
     7
100
AcDbCircle
 10
-6.894299
 20
19.040251
 30
0.0
 40
19.0
210
0.0
220
0.0
230
1.0
100
AcDbArc
 50
79.791091
 51
81.778909
  0
LINE
  5
67
100
AcDbEntity
  8
0
 62
     7
 48
0.036511
100
AcDbLine
 10
-4.772377
 20
39.178769
 30
0.0
 11
-4.177427
 21
37.845
 31
0.0
210
0.0
220
0.0
230
1.0
  0
ARC
  5
68
100
AcDbEntity
  8
0
 62
     7
100
AcDbCircle
 10
-6.894299
 20
19.040251
 30
0.0
 40
20.25
210
0.0
220
0.0
230
1.0
100
AcDbArc
 50
83.985146
 51
86.814854
  0
LINE
  5
69
100
AcDbEntity
  8
0
 62
     7
 48
0.036511
100
AcDbLine
 10
-6.569696
 20
38.037478
 30
0.0
 11
-5.769155
 21
39.258968
 31
0.0
210
0.0
220
0.0
230
1.0
  0
ARC
  5
6A
100
AcDbEntity
  8
0
 62
     7
100
AcDbCircle
 10
-6.894299
 20
19.040251
 30
0.0
 40
19.0
210
0.0
220
0.0
230
1.0
100
AcDbArc
 50
89.021091
 51
91.008909
  0
LINE
  5
6B
100
AcDbEntity
  8
0
 62
     7
 48
0.036511
100
AcDbLine
 10
-8.030029
 20
39.258376
 30
0.0
 11
-7.228849
 21
38.037305
 31
0.0
210
0.0
220
0.0
230
1.0
  0
ARC
  5
6C
100
AcDbEntity
  8
0
 62
     7
100
AcDbCircle
 10
-6.894299
 20
19.040251
 30
0.0
 40
20.25
210
0.0
220
0.0
230
1.0
100
AcDbArc
 50
93.215146
 51
96.044854
  0
LINE
  5
6D
100
AcDbEntity
  8
0
 62
     7
 48
0.036511
100
AcDbLine
 10
-9.621017
 20
37.843575
 30
0.0
 11
-9.026766
 21
39.177656
 31
0.0
210
0.0
220
0.0
230
1.0
  0
ARC
  5
6E
100
AcDbEntity
  8
0
 62
     7
100
AcDbCircle
 10
-6.894299
 20
19.040251
 30
0.0
 40
19.0
210
0.0
220
0.0
230
1.0
100
AcDbArc
 50
98.251091
 51
100.238909
  0
LINE
  5
6F
100
AcDbEntity
  8
0
 62
     7
 48
0.036511
100
AcDbLine
 10
-11.258272
 20
38.814432
 30
0.0
 11
-10.271607
 21
37.737678
 31
0.0
210
0.0
220
0.0
230
1.0
  0
ARC
  5
70
100
AcDbEntity
  8
0
 62
     7
100
AcDbCircle
 10
-6.894299
 20
19.040251
 30
0.0
 40
20.25
210
0.0
220
0.0
230
1.0
100
AcDbArc
 50
102.445146
 51
105.274854
  0
LINE
  5
71
100
AcDbEntity
  8
0
 62
     7
 48
0.036511
100
AcDbLine
 10
-12.601729
 20
37.162757
 30
0.0
 11
-12.229156
 21
38.574881
 31
0.0
210
0.0
220
0.0
230
1.0
  0
ARC
  5
72
100
AcDbEntity
  8
0
 62
     7
100
AcDbCircle
 10
-6.894299
 20
19.040251
 30
0.0
 40
19.0
210
0.0
220
0.0
230
1.0
100
AcDbArc
 50
107.481091
 51
109.468909
  0
LINE
  5
73
100
AcDbEntity
  8
0
 62
     7
 48
0.036511
100
AcDbLine
 10
-14.373508
 20
37.858431
 30
0.0
 11
-13.22691
 21
36.953878
 31
0.0
210
0.0
220
0.0
230
1.0
  0
ARC
  5
74
100
AcDbEntity
  8
0
 62
     7
100
AcDbCircle
 10
-6.894299
 20
19.040251
 30
0.0
 40
20.25
210
0.0
220
0.0
230
1.0
100
AcDbArc
 50
111.675146
 51
114.504854
  0
LINE
  5
75
100
AcDbEntity
  8
0
 62
     7
 48
0.036511
100
AcDbLine
 10
-15.434646
 20
36.012654
 30
0.0
 11
-15.293398
 21
37.466255
 31
0.0
210
0.0
220
0.0
230
1.0
  0
ARC
  5
76
100
AcDbEntity
  8
0
 62
     7
100
AcDbCircle
 10
-6.894299
 20
19.040251
 30
0.0
 40
19.0
210
0.0
220
0.0
230
1.0
100
AcDbArc
 50
116.711091
 51
118.698909
  0
LINE
  5
77
100
AcDbEntity
  8
0
 62
     7
 48
0.036511
100
AcDbLine
 10
-17.29507
 20
36.415131
 30
0.0
 11
-16.018228
 21
35.706201
 31
0.0
210
0.0
220
0.0
230
1.0
  0
ARC
  5
78
100
AcDbEntity
  8
0
 62
     7
100
AcDbCircle
 10
-6.894299
 20
19.040251
 30
0.0
 40
20.25
210
0.0
220
0.0
230
1.0
100
AcDbArc
 50
120.905146
 51
123.734854
  0
LINE
  5
79
100
AcDbEntity
  8
0
 62
     7
 48
0.036511
100
AcDbLine
 10
-18.140145
 20
35.880483
 30
0.0
 11
-18.046409
 21
34.423048
 31
0.0
210
0.0
220
0.0
230
1.0
  0
ARC
  5
7A
100
AcDbEntity
  8
0
 62
     7
100
AcDbCircle
 10
-6.894299
 20
19.040251
 30
0.0
 40
19.0
210
0.0
220
0.0
230
1.0
100
AcDbArc
 50
125.941091
 51
127.928909
  0
LINE
  5
7B
100
AcDbEntity
  8
0
 62
     7
 48
0.036511
100
AcDbLine
 10
-19.947302
 20
34.521905
 30
0.0
 11
-18.573281
 21
34.026957
 31
0.0
210
0.0
220
0.0
230
1.0
  0
ARC
  5
7C
100
AcDbEntity
  8
0
 62
     7
100
AcDbCircle
 10
-6.894299
 20
19.040251
 30
0.0
 40
20.25
210
0.0
220
0.0
230
1.0
100
AcDbArc
 50
130.135146
 51
132.964854
  0
LINE
  5
7D
100
AcDbEntity
  8
0
 62
     7
 48
0.036511
100
AcDbLine
 10
-20.695679
 20
33.858632
 30
0.0
 11
-20.369386
 21
32.435101
 31
0.0
210
0.0
220
0.0
230
1.0
  0
ARC
  5
7E
100
AcDbEntity
  8
0
 62
     7
100
AcDbCircle
 10
-6.894299
 20
19.040251
 30
0.0
 40
19.0
210
0.0
220
0.0
230
1.0
100
AcDbArc
 50
135.171091
 51
137.158909
  0
LINE
  5
7F
100
AcDbEntity
  8
0
 62
     7
 48
0.036511
100
AcDbLine
 10
-22.261524
 20
32.227779
 30
0.0
 11
-20.825905
 21
31.95963
 31
0.0
210
0.0
220
0.0
230
1.0
  0
ARC
  5
80
100
AcDbEntity
  8
0
 62
     7
100
AcDbCircle
 10
-6.894299
 20
19.040251
 30
0.0
 40
20.25
210
0.0
220
0.0
230
1.0
100
AcDbArc
 50
139.365146
 51
142.194854
  0
LINE
  5
81
100
AcDbEntity
  8
0
 62
     7
 48
0.036511
100
AcDbLine
 10
-22.893823
 20
31.453055
 30
0.0
 11
-22.343424
 21
30.100293
 31
0.0
210
0.0
220
0.0
230
1.0
  0
ARC
  5
82
100
AcDbEntity
  8
0
 62
     7
100
AcDbCircle
 10
-6.894299
 20
19.040251
 30
0.0
 40
19.0
210
0.0
220
0.0
230
1.0
100
AcDbArc
 50
144.401091
 51
146.388909
  0
LINE
  5
83
100
AcDbEntity
  8
0
 62
     7
 48
0.036511
100
AcDbLine
 10
-24.177809
 20
29.59216
 30
0.0
 11
-22.717767
 21
29.557753
 31
0.0
210
0.0
220
0.0
230
1.0
  0
ARC
  5
84
100
AcDbEntity
  8
0
 62
     7
100
AcDbCircle
 10
-6.894299
 20
19.040251
 30
0.0
 40
20.25
210
0.0
220
0.0
230
1.0
100
AcDbArc
 50
148.595146
 51
151.424854
  0
LINE
  5
85
100
AcDbEntity
  8
0
 62
     7
 48
0.036511
100
AcDbLine
 10
-24.677658
 20
28.726047
 30
0.0
 11
-23.917404
 21
27.479083
 31
0.0
210
0.0
220
0.0
230
1.0
  0
ARC
  5
86
100
AcDbEntity
  8
0
 62
     7
100
AcDbCircle
 10
-6.894299
 20
19.040251
 30
0.0
 40
19.0
210
0.0
220
0.0
230
1.0
100
AcDbArc
 50
153.631091
 51
155.618909
  0
LINE
  5
87
100
AcDbEntity
  8
0
 62
     7
 48
0.036511
100
AcDbLine
 10
-25.646535
 20
26.683297
 30
0.0
 11
-24.199878
 21
26.883524
 31
0.0
210
0.0
220
0.0
230
1.0
  0
ARC
  5
88
100
AcDbEntity
  8
0
 62
     7
100
AcDbCircle
 10
-6.894299
 20
19.040251
 30
0.0
 40
20.25
210
0.0
220
0.0
230
1.0
100
AcDbArc
 50
157.825146
 51
160.654854
  0
LINE
  5
89
100
AcDbEntity
  8
0
 62
     7
 48
0.036511
100
AcDbLine
 10
-26.000989
 20
25.748224
 30
0.0
 11
-25.050568
 21
24.639348
 31
0.0
210
0.0
220
0.0
230
1.0
  0
ARC
  5
8A
100
AcDbEntity
  8
0
 62
     7
100
AcDbCircle
 10
-6.894299
 20
19.040251
 30
0.0
 40
19.0
210
0.0
220
0.0
230
1.0
100
AcDbArc
 50
162.861091
 51
164.848909
  0
LINE
  5
8B
100
AcDbEntity
  8
0
 62
     7
 48
0.036511
100
AcDbLine
 10
-26.629668
 20
23.576517
 30
0.0
 11
-25.233858
 21
24.006192
 31
0.0
210
0.0
220
0.0
230
1.0
  0
ARC
  5
8C
100
AcDbEntity
  8
0
 62
     7
100
AcDbCircle
 10
-6.894299
 20
19.040251
 30
0.0
 40
20.25
210
0.0
220
0.0
230
1.0
100
AcDbArc
 50
167.055146
 51
169.884854
  0
LINE
  5
8D
100
AcDbEntity
  8
0
 62
     7
 48
0.036511
100
AcDbLine
 10
-26.829549
 20
22.596697
 30
0.0
 11
-25.713573
 21
21.654623
 31
0.0
210
0.0
220
0.0
230
1.0
  0
ARC
  5
8E
100
AcDbEntity
  8
0
 62
     7
100
AcDbCircle
 10
-6.894299
 20
19.040251
 30
0.0
 40
19.0
210
0.0
220
0.0
230
1.0
100
AcDbArc
 50
172.091091
 51
174.078909
  0
LINE
  5
8F
100
AcDbEntity
  8
0
 62
     7
 48
0.036511
100
AcDbLine
 10
-27.101751
 20
20.352269
 30
0.0
 11
-25.792932
 21
21.000266
 31
0.0
210
0.0
220
0.0
230
1.0
  0
ARC
  5
90
100
AcDbEntity
  8
0
 62
     7
100
AcDbCircle
 10
-6.894299
 20
19.040251
 30
0.0
 40
20.25
210
0.0
220
0.0
230
1.0
100
AcDbArc
 50
176.285146
 51
179.114854
  0
LINE
  5
91
100
AcDbEntity
  8
0
 62
     7
 48
0.036511
100
AcDbLine
 10
-27.141883
 20
19.353074
 30
0.0
 11
-25.889249
 21
18.602199
 31
0.0
210
0.0
220
0.0
230
1.0
  0
ARC
  5
92
100
AcDbEntity
  8
0
 62
     7
100
AcDbCircle
 10
-6.894299
 20
19.040251
 30
0.0
 40
19.0
210
0.0
220
0.0
230
1.0
100
AcDbArc
 50
181.321091
 51
183.308909
  0
LINE
  5
93
100
AcDbEntity
  8
0
 62
     7
 48
0.036511
100
AcDbLine
 10
-27.050558
 20
17.094046
 30
0.0
 11
-25.862623
 21
17.943585
 31
0.0
210
0.0
220
0.0
230
1.0
  0
ARC
  5
94
100
AcDbEntity
  8
0
 62
     7
100
AcDbCircle
 10
-6.894299
 20
19.040251
 30
0.0
 40
20.25
210
0.0
220
0.0
230
1.0
100
AcDbArc
 50
185.515146
 51
188.344854
  0
LINE
  5
95
100
AcDbEntity
  8
0
 62
     7
 48
0.036511
100
AcDbLine
 10
-26.929902
 20
16.101352
 30
0.0
 11
-25.573047
 21
15.561118
 31
0.0
210
0.0
220
0.0
230
1.0
  0
ARC
  5
96
100
AcDbEntity
  8
0
 62
     7
100
AcDbCircle
 10
-6.894299
 20
19.040251
 30
0.0
 40
19.0
210
0.0
220
0.0
230
1.0
100
AcDbArc
 50
190.551091
 51
192.538909
  0
LINE
  5
97
100
AcDbEntity
  8
0
 62
     7
 48
0.036511
100
AcDbLine
 10
-26.477416
 20
13.88622
 30
0.0
 11
-25.441126
 21
14.915302
 31
0.0
210
0.0
220
0.0
230
1.0
  0
ARC
  5
98
100
AcDbEntity
  8
0
 62
     7
100
AcDbCircle
 10
-6.894299
 20
19.040251
 30
0.0
 40
20.25
210
0.0
220
0.0
230
1.0
100
AcDbArc
 50
194.745146
 51
197.574854
  0
LINE
  5
99
100
AcDbEntity
  8
0
 62
     7
 48
0.036511
100
AcDbLine
 10
-26.199095
 20
12.925732
 30
0.0
 11
-24.773157
 21
12.61013
 31
0.0
210
0.0
220
0.0
230
1.0
  0
ARC
  5
9A
100
AcDbEntity
  8
0
 62
     7
100
AcDbCircle
 10
-6.894299
 20
19.040251
 30
0.0
 40
19.0
210
0.0
220
0.0
230
1.0
100
AcDbArc
 50
199.781091
 51
201.768909
  0
LINE
  5
9B
100
AcDbEntity
  8
0
 62
     7
 48
0.036511
100
AcDbLine
 10
-25.397166
 20
10.811859
 30
0.0
 11
-24.539356
 21
11.993835
 31
0.0
210
0.0
220
0.0
230
1.0
  0
ARC
  5
9C
100
AcDbEntity
  8
0
 62
     7
100
AcDbCircle
 10
-6.894299
 20
19.040251
 30
0.0
 40
20.25
210
0.0
220
0.0
230
1.0
100
AcDbArc
 50
203.975146
 51
206.804854
  0
LINE
  5
9D
100
AcDbEntity
  8
0
 62
     7
 48
0.036511
100
AcDbLine
 10
-24.968388
 20
9.908449
 30
0.0
 11
-23.51029
 21
9.825651
 31
0.0
210
0.0
220
0.0
230
1.0
  0
ARC
  5
9E
100
AcDbEntity
  8
0
 62
     7
100
AcDbCircle
 10
-6.894299
 20
19.040251
 30
0.0
 40
19.0
210
0.0
220
0.0
230
1.0
100
AcDbArc
 50
209.011091
 51
210.998909
  0
LINE
  5
9F
100
AcDbEntity
  8
0
 62
     7
 48
0.036511
100
AcDbLine
 10
-23.837781
 20
7.950574
 30
0.0
 11
-23.180664
 21
9.254837
 31
0.0
210
0.0
220
0.0
230
1.0
  0
ARC
  5
A0
100
AcDbEntity
  8
0
 62
     7
100
AcDbCircle
 10
-6.894299
 20
19.040251
 30
0.0
 40
20.25
210
0.0
220
0.0
230
1.0
100
AcDbArc
 50
213.205146
 51
216.034854
  0
LINE
  5
A1
100
AcDbEntity
  8
0
 62
     7
 48
0.036511
100
AcDbLine
 10
-23.26965
 20
7.127635
 30
0.0
 11
-21.81715
 21
7.279786
 31
0.0
210
0.0
220
0.0
230
1.0
  0
ARC
  5
A2
100
AcDbEntity
  8
0
 62
     7
100
AcDbCircle
 10
-6.894299
 20
19.040251
 30
0.0
 40
19.0
210
0.0
220
0.0
230
1.0
100
AcDbArc
 50
218.241091
 51
220.228909
  0
LINE
  5
A3
100
AcDbEntity
  8
0
 62
     7
 48
0.036511
100
AcDbLine
 10
-21.839641
 20
5.376457
 30
0.0
 11
-21.400234
 21
6.769234
 31
0.0
210
0.0
220
0.0
230
1.0
  0
ARC
  5
A4
100
AcDbEntity
  8
0
 62
     7
100
AcDbCircle
 10
-6.894299
 20
19.040251
 30
0.0
 40
20.25
210
0.0
220
0.0
230
1.0
100
AcDbArc
 50
222.435146
 51
225.264854
  0
LINE
  5
A5
100
AcDbEntity
  8
0
 62
     7
 48
0.036511
100
AcDbLine
 10
-21.146868
 20
4.655301
 30
0.0
 11
-19.737579
 21
5.03846
 31
0.0
210
0.0
220
0.0
230
1.0
  0
ARC
  5
A6
100
AcDbEntity
  8
0
 62
     7
100
AcDbCircle
 10
-6.894299
 20
19.040251
 30
0.0
 40
19.0
210
0.0
220
0.0
230
1.0
100
AcDbArc
 50
227.471091
 51
229.458909
  0
LINE
  5
A7
100
AcDbEntity
  8
0
 62
     7
 48
0.036511
100
AcDbLine
 10
-19.454489
 20
3.156167
 30
0.0
 11
-19.24417
 21
4.60139
 31
0.0
210
0.0
220
0.0
230
1.0
  0
ARC
  5
A8
100
AcDbEntity
  8
0
 62
     7
100
AcDbCircle
 10
-6.894299
 20
19.040251
 30
0.0
 40
20.25
210
0.0
220
0.0
230
1.0
100
AcDbArc
 50
231.665146
 51
234.494854
  0
LINE
  5
A9
100
AcDbEntity
  8
0
 62
     7
 48
0.036511
100
AcDbLine
 10
-18.655014
 20
2.555467
 30
0.0
 11
-17.32543
 21
3.159712
 31
0.0
210
0.0
220
0.0
230
1.0
  0
ARC
  5
AA
100
AcDbEntity
  8
0
 62
     7
100
AcDbCircle
 10
-6.894299
 20
19.040251
 30
0.0
 40
19.0
210
0.0
220
0.0
230
1.0
100
AcDbArc
 50
236.701091
 51
238.688909
  0
LINE
  5
AB
100
AcDbEntity
  8
0
 62
     7
 48
0.036511
100
AcDbLine
 10
-16.768305
 20
2.807444
 30
0.0
 11
-16.74409
 21
1.347197
 31
0.0
210
0.0
220
0.0
230
1.0
  0
ARC
  5
AC
100
AcDbEntity
  8
0
 62
     7
100
AcDbCircle
 10
-6.894299
 20
19.040251
 30
0.0
 40
20.25
210
0.0
220
0.0
230
1.0
100
AcDbArc
 50
240.895146
 51
243.724854
  0
LINE
  5
AD
100
AcDbEntity
  8
0
 62
     7
 48
0.036511
100
AcDbLine
 10
-15.858615
 20
0.88251
 30
0.0
 11
-14.643165
 21
1.692194
 31
0.0
210
0.0
220
0.0
230
1.0
  0
ARC
  5
AE
100
AcDbEntity
  8
0
 62
     7
100
AcDbCircle
 10
-6.894299
 20
19.040251
 30
0.0
 40
19.0
210
0.0
220
0.0
230
1.0
100
AcDbArc
 50
245.931091
 51
247.918909
  0
LINE
  5
AF
100
AcDbEntity
  8
0
 62
     7
 48
0.036511
100
AcDbLine
 10
-14.03675
 20
1.433848
 30
0.0
 11
-13.778628
 21
-0.003607
 31
0.0
210
0.0
220
0.0
230
1.0
  0
ARC
  5
B0
100
AcDbEntity
  8
0
 62
     7
100
AcDbCircle
 10
-6.894299
 20
19.040251
 30
0.0
 40
20.25
210
0.0
220
0.0
230
1.0
100
AcDbArc
 50
250.125146
 51
252.954854
  0
LINE
  5
B1
100
AcDbEntity
  8
0
 62
     7
 48
0.036511
100
AcDbLine
 10
-12.830083
 20
-0.32025
 30
0.0
 11
-11.760242
 21
0.673906
 31
0.0
210
0.0
220
0.0
230
1.0
  0
ARC
  5
B2
100
AcDbEntity
  8
0
 62
     7
100
AcDbCircle
 10
-6.894299
 20
19.040251
 30
0.0
 40
19.0
210
0.0
220
0.0
230
1.0
100
AcDbArc
 50
255.161091
 51
257.148909
  0
LINE
  5
B3
100
AcDbEntity
  8
0
 62
     7
 48
0.036511
100
AcDbLine
 10
-11.12024
 20
0.516174
 30
0.0
 11
-10.634895
 21
-0.861268
 31
0.0
210
0.0
220
0.0
230
1.0
  0
ARC
  5
B4
100
AcDbEntity
  8
0
 62
     7
100
AcDbCircle
 10
-6.894299
 20
19.040251
 30
0.0
 40
20.25
210
0.0
220
0.0
230
1.0
100
AcDbArc
 50
259.355146
 51
262.184854
  0
LINE
  5
B5
100
AcDbEntity
  8
0
 62
     7
 48
0.036511
100
AcDbLine
 10
-9.647843
 20
-1.021666
 30
0.0
 11
-8.751314
 21
0.131218
 31
0.0
210
0.0
220
0.0
230
1.0
  0
ARC
  5
B6
100
AcDbEntity
  8
0
 62
     7
100
AcDbCircle
 10
-6.894299
 20
19.040251
 30
0.0
 40
19.0
210
0.0
220
0.0
230
1.0
100
AcDbArc
 50
264.391091
 51
266.378909
  0
LINE
  5
B7
100
AcDbEntity
  8
0
 62
     7
 48
0.036511
100
AcDbLine
 10
-8.094299
 20
0.078183
 30
0.0
 11
-7.394299
 21
-1.203576
 31
0.0
210
0.0
220
0.0
230
1.0
  0
ARC
  5
B8
100
AcDbEntity
  8
0
 62
     7
100
AcDbCircle
 10
-6.894299
 20
19.040251
 30
0.0
 40
20.25
210
0.0
220
0.0
230
1.0
100
AcDbArc
 50
268.585146
 51
271.414854
  0
LINE
  5
B9
100
AcDbEntity
  8
0
 62
     7
 48
0.036511
100
AcDbLine
 10
-6.394299
 20
-1.203576
 30
0.0
 11
-5.694299
 21
0.078183
 31
0.0
210
0.0
220
0.0
230
1.0
  0
ARC
  5
BA
100
AcDbEntity
  8
0
 62
     7
100
AcDbCircle
 10
-6.894299
 20
19.040251
 30
0.0
 40
19.0
210
0.0
220
0.0
230
1.0
100
AcDbArc
 50
273.621091
 51
275.638909
  0
LINE
  5
BB
100
AcDbEntity
  8
0
 62
     7
 48
0.036511
100
AcDbLine
 10
-5.027383
 20
0.132193
 30
0.0
 11
-4.130251
 21
-1.020222
 31
0.0
210
0.0
220
0.0
230
1.0
  0
ARC
  5
BC
100
AcDbEntity
  8
0
 62
     7
100
AcDbCircle
 10
-6.894299
 20
19.040251
 30
0.0
 40
20.25
210
0.0
220
0.0
230
1.0
100
AcDbArc
 50
277.845146
 51
280.674854
  0
LINE
  5
BD
100
AcDbEntity
  8
0
 62
     7
 48
0.036511
100
AcDbLine
 10
-3.143283
 20
-0.859307
 30
0.0
 11
-2.658659
 21
0.518389
 31
0.0
210
0.0
220
0.0
230
1.0
  0
ARC
  5
BE
100
AcDbEntity
  8
0
 62
     7
100
AcDbCircle
 10
-6.894299
 20
19.040251
 30
0.0
 40
19.0
210
0.0
220
0.0
230
1.0
100
AcDbArc
 50
282.881091
 51
284.868909
  0
LINE
  5
BF
100
AcDbEntity
  8
0
 62
     7
 48
0.036511
100
AcDbLine
 10
-2.01874
 20
0.676457
 30
0.0
 11
-0.948379
 21
-0.317139
 31
0.0
210
0.0
220
0.0
230
1.0
  0
ENDSEC
  0
SECTION
  2
OBJECTS
  0
DICTIONARY
  5
19
100
AcDbDictionary
  3
ACAD_GROUP
350
1A
  3
ACAD_MLINESTYLE
350
1B
  0
DICTIONARY
  5
1A
102
{ACAD_REACTORS
330
19
102
}
100
AcDbDictionary
  0
DICTIONARY
  5
1B
102
{ACAD_REACTORS
330
19
102
}
100
AcDbDictionary
  3
STANDARD
350
1C
  0
MLINESTYLE
  5
1C
102
{ACAD_REACTORS
330
1B
102
}
100
AcDbMlineStyle
  2
STANDARD
 70
     0
  3

 62
     0
 51
90.0
 52
90.0
 71
     2
 49
0.5
 62
   256
  6
BYLAYER
 49
-0.5
 62
   256
  6
BYLAYER
  0
ENDSEC
  0
EOF
